  0
SECTION
  2
HEADER
  9
$ANGBASE
  50
0.0
  9
$ANGDIR
  70
1
  9
$MEASUREMENT
  70
1
  0
ENDSEC
  0
SECTION
  2
TABLES
  0
TABLE
  2
LTYPE
  70
4
  0
LTYPE
  5
40F
  2
CONTINUOUS
  70
0
  3
Solid line
  72
65
  73
0
  40
0.0
  0
LTYPE
  5
410
  2
DASHDOT
 70
0
  3
Dash Dot ____ _ ____ _
 72
65
 73
4
 40
2.0
 49
1.25
 49
-0.25
 49
0.25
 49
-0.25
  0
LTYPE
  5
411
  2
DASHED
 70
0
  3
Dashed __ __ __ __ __
 72
65
 73
2
 40
0.75
 49
0.5
 49
-0.25
  0
LTYPE
  5
43B
  2
DOTTED
 70
0
  3
Dotted .  .  .  .
 72
65
 73
2
 40
0.2
 49
0.0
 49
-0.2
  0
ENDTAB
  0
TABLE
  2
STYLE
  70
4
  0
STYLE
  2
KICAD
  70
0
  40
0
  41
1
  42
1
  50
0
  71
0
  3
isocp.shx
  0
STYLE
  2
KICADB
  70
0
  40
0
  41
1
  42
1
  50
0
  71
0
  3
isocp.shx
  0
STYLE
  2
KICADI
  70
0
  40
0
  41
1
  42
1
  50
15
  71
0
  3
isocp.shx
  0
STYLE
  2
KICADBI
  70
0
  40
0
  41
1
  42
1
  50
15
  71
0
  3
isocp.shx
  0
ENDTAB
  0
TABLE
  2
LAYER
  70
1
  0
LAYER
  2
BLACK
  70
0
  62
7
  6
CONTINUOUS
  0
ENDTAB
  0
ENDSEC
  0
SECTION
  2
ENTITIES
0
LINE
8
BLACK
6
CONTINUOUS
10
96.1999999999999886
20
60.0499999999999972
11
96.5773659999999978
21
60.0314610000000002
0
LINE
8
BLACK
6
CONTINUOUS
10
96.5773659999999978
20
60.0314610000000002
11
96.9510980000000018
21
59.9760229999999979
0
LINE
8
BLACK
6
CONTINUOUS
10
96.9510980000000018
20
59.9760229999999979
11
97.3175959999999947
21
59.8842199999999991
0
LINE
8
BLACK
6
CONTINUOUS
10
97.3175959999999947
20
59.8842199999999991
11
97.6733309999999904
21
59.7569359999999961
0
LINE
8
BLACK
6
CONTINUOUS
10
97.6733309999999904
20
59.7569359999999961
11
98.0148769999999985
21
59.5953969999999984
0
LINE
8
BLACK
6
CONTINUOUS
10
98.0148769999999985
20
59.5953969999999984
11
98.3389449999999954
21
59.4011579999999952
0
LINE
8
BLACK
6
CONTINUOUS
10
98.3389449999999954
20
59.4011579999999952
11
98.6424140000000023
21
59.176089999999995
0
LINE
8
BLACK
6
CONTINUOUS
10
98.6424140000000023
20
59.176089999999995
11
98.9223609999999951
21
58.9223609999999951
0
LINE
8
BLACK
6
CONTINUOUS
10
98.9223609999999951
20
58.9223609999999951
11
99.1760900000000021
21
58.6424139999999952
0
LINE
8
BLACK
6
CONTINUOUS
10
99.1760900000000021
20
58.6424139999999952
11
99.4011579999999952
21
58.3389449999999954
0
LINE
8
BLACK
6
CONTINUOUS
10
99.4011579999999952
20
58.3389449999999954
11
99.5953969999999913
21
58.0148769999999985
0
LINE
8
BLACK
6
CONTINUOUS
10
99.5953969999999913
20
58.0148769999999985
11
99.7569359999999961
21
57.6733309999999975
0
LINE
8
BLACK
6
CONTINUOUS
10
99.7569359999999961
20
57.6733309999999975
11
99.8842199999999991
21
57.3175959999999947
0
LINE
8
BLACK
6
CONTINUOUS
10
99.8842199999999991
20
57.3175959999999947
11
99.9760229999999979
21
56.9510979999999947
0
LINE
8
BLACK
6
CONTINUOUS
10
99.9760229999999979
20
56.9510979999999947
11
100.0314609999999931
21
56.5773659999999978
0
LINE
8
BLACK
6
CONTINUOUS
10
100.0314609999999931
20
56.5773659999999978
11
100.0499999999999972
21
56.1999999999999957
0
LINE
8
BLACK
6
CONTINUOUS
10
100.0499999999999972
20
56.1999999999999957
11
100.0499999999999972
21
3.7999999999999998
0
LINE
8
BLACK
6
CONTINUOUS
10
100.0499999999999972
20
3.7999999999999998
11
100.0314609999999931
21
3.422634
0
LINE
8
BLACK
6
CONTINUOUS
10
100.0314609999999931
20
3.422634
11
99.9760229999999979
21
3.048902
0
LINE
8
BLACK
6
CONTINUOUS
10
99.9760229999999979
20
3.048902
11
99.8842199999999991
21
2.682404
0
LINE
8
BLACK
6
CONTINUOUS
10
99.8842199999999991
20
2.682404
11
99.7569359999999961
21
2.3266689999999999
0
LINE
8
BLACK
6
CONTINUOUS
10
99.7569359999999961
20
2.3266689999999999
11
99.5953969999999913
21
1.985123
0
LINE
8
BLACK
6
CONTINUOUS
10
99.5953969999999913
20
1.985123
11
99.4011579999999952
21
1.6610549999999999
0
LINE
8
BLACK
6
CONTINUOUS
10
99.4011579999999952
20
1.6610549999999999
11
99.1760900000000021
21
1.357586
0
LINE
8
BLACK
6
CONTINUOUS
10
99.1760900000000021
20
1.357586
11
98.9223609999999951
21
1.077639
0
LINE
8
BLACK
6
CONTINUOUS
10
98.9223609999999951
20
1.077639
11
98.6424140000000023
21
0.8239099999999999
0
LINE
8
BLACK
6
CONTINUOUS
10
98.6424140000000023
20
0.8239099999999999
11
98.3389449999999954
21
0.598842
0
LINE
8
BLACK
6
CONTINUOUS
10
98.3389449999999954
20
0.598842
11
98.0148769999999985
21
0.404603
0
LINE
8
BLACK
6
CONTINUOUS
10
98.0148769999999985
20
0.404603
11
97.6733309999999904
21
0.243064
0
LINE
8
BLACK
6
CONTINUOUS
10
97.6733309999999904
20
0.243064
11
97.3175959999999947
21
0.11578
0
LINE
8
BLACK
6
CONTINUOUS
10
97.3175959999999947
20
0.11578
11
96.9510980000000018
21
0.023977
0
LINE
8
BLACK
6
CONTINUOUS
10
96.9510980000000018
20
0.023977
11
96.5773659999999978
21
-0.031461
0
LINE
8
BLACK
6
CONTINUOUS
10
96.5773659999999978
20
-0.031461
11
96.1999999999999886
21
-0.05
0
LINE
8
BLACK
6
CONTINUOUS
10
96.1999999999999886
20
-0.05
11
3.7999999999999998
21
-0.05
0
LINE
8
BLACK
6
CONTINUOUS
10
3.7999999999999998
20
-0.05
11
3.422634
21
-0.031461
0
LINE
8
BLACK
6
CONTINUOUS
10
3.422634
20
-0.031461
11
3.048902
21
0.023977
0
LINE
8
BLACK
6
CONTINUOUS
10
3.048902
20
0.023977
11
2.682404
21
0.11578
0
LINE
8
BLACK
6
CONTINUOUS
10
2.682404
20
0.11578
11
2.3266689999999999
21
0.243064
0
LINE
8
BLACK
6
CONTINUOUS
10
2.3266689999999999
20
0.243064
11
1.985123
21
0.404603
0
LINE
8
BLACK
6
CONTINUOUS
10
1.985123
20
0.404603
11
1.6610549999999999
21
0.598842
0
LINE
8
BLACK
6
CONTINUOUS
10
1.6610549999999999
20
0.598842
11
1.357586
21
0.8239099999999999
0
LINE
8
BLACK
6
CONTINUOUS
10
1.357586
20
0.8239099999999999
11
1.077639
21
1.077639
0
LINE
8
BLACK
6
CONTINUOUS
10
1.077639
20
1.077639
11
0.8239099999999999
21
1.357586
0
LINE
8
BLACK
6
CONTINUOUS
10
0.8239099999999999
20
1.357586
11
0.598842
21
1.6610549999999999
0
LINE
8
BLACK
6
CONTINUOUS
10
0.598842
20
1.6610549999999999
11
0.404603
21
1.985123
0
LINE
8
BLACK
6
CONTINUOUS
10
0.404603
20
1.985123
11
0.243064
21
2.3266689999999999
0
LINE
8
BLACK
6
CONTINUOUS
10
0.243064
20
2.3266689999999999
11
0.11578
21
2.682404
0
LINE
8
BLACK
6
CONTINUOUS
10
0.11578
20
2.682404
11
0.023977
21
3.048902
0
LINE
8
BLACK
6
CONTINUOUS
10
0.023977
20
3.048902
11
-0.031461
21
3.422634
0
LINE
8
BLACK
6
CONTINUOUS
10
-0.031461
20
3.422634
11
-0.05
21
3.7999999999999998
0
LINE
8
BLACK
6
CONTINUOUS
10
-0.05
20
3.7999999999999998
11
-0.05
21
56.1999999999999957
0
LINE
8
BLACK
6
CONTINUOUS
10
-0.05
20
56.1999999999999957
11
-0.031461
21
56.5773659999999978
0
LINE
8
BLACK
6
CONTINUOUS
10
-0.031461
20
56.5773659999999978
11
0.023977
21
56.9510979999999947
0
LINE
8
BLACK
6
CONTINUOUS
10
0.023977
20
56.9510979999999947
11
0.11578
21
57.3175959999999947
0
LINE
8
BLACK
6
CONTINUOUS
10
0.11578
20
57.3175959999999947
11
0.243064
21
57.6733309999999975
0
LINE
8
BLACK
6
CONTINUOUS
10
0.243064
20
57.6733309999999975
11
0.404603
21
58.0148769999999985
0
LINE
8
BLACK
6
CONTINUOUS
10
0.404603
20
58.0148769999999985
11
0.598842
21
58.3389449999999954
0
LINE
8
BLACK
6
CONTINUOUS
10
0.598842
20
58.3389449999999954
11
0.8239099999999999
21
58.6424139999999952
0
LINE
8
BLACK
6
CONTINUOUS
10
0.8239099999999999
20
58.6424139999999952
11
1.077639
21
58.9223609999999951
0
LINE
8
BLACK
6
CONTINUOUS
10
1.077639
20
58.9223609999999951
11
1.357586
21
59.176089999999995
0
LINE
8
BLACK
6
CONTINUOUS
10
1.357586
20
59.176089999999995
11
1.6610549999999999
21
59.4011579999999952
0
LINE
8
BLACK
6
CONTINUOUS
10
1.6610549999999999
20
59.4011579999999952
11
1.985123
21
59.5953969999999984
0
LINE
8
BLACK
6
CONTINUOUS
10
1.985123
20
59.5953969999999984
11
2.3266689999999999
21
59.7569359999999961
0
LINE
8
BLACK
6
CONTINUOUS
10
2.3266689999999999
20
59.7569359999999961
11
2.682404
21
59.8842199999999991
0
LINE
8
BLACK
6
CONTINUOUS
10
2.682404
20
59.8842199999999991
11
3.048902
21
59.9760229999999979
0
LINE
8
BLACK
6
CONTINUOUS
10
3.048902
20
59.9760229999999979
11
3.422634
21
60.0314610000000002
0
LINE
8
BLACK
6
CONTINUOUS
10
3.422634
20
60.0314610000000002
11
3.7999999999999998
21
60.0499999999999972
0
LINE
8
BLACK
6
CONTINUOUS
10
3.7999999999999998
20
60.0499999999999972
11
96.1999999999999886
21
60.0499999999999972
0
LINE
8
BLACK
6
CONTINUOUS
10
3.7999999999999998
20
59.9499999999999957
11
3.615774
21
59.9499999999999957
0
LINE
8
BLACK
6
CONTINUOUS
10
3.615774
20
59.9499999999999957
11
3.2490969999999999
21
59.9138850000000005
0
LINE
8
BLACK
6
CONTINUOUS
10
3.2490969999999999
20
59.9138850000000005
11
2.8877259999999998
21
59.8420039999999958
0
LINE
8
BLACK
6
CONTINUOUS
10
2.8877259999999998
20
59.8420039999999958
11
2.5351399999999997
21
59.735047999999999
0
LINE
8
BLACK
6
CONTINUOUS
10
2.5351399999999997
20
59.735047999999999
11
2.1947350000000001
21
59.5940480000000008
0
LINE
8
BLACK
6
CONTINUOUS
10
2.1947350000000001
20
59.5940480000000008
11
1.8697899999999998
21
59.4203609999999998
0
LINE
8
BLACK
6
CONTINUOUS
10
1.8697899999999998
20
59.4203609999999998
11
1.563434
21
59.2156599999999997
0
LINE
8
BLACK
6
CONTINUOUS
10
1.563434
20
59.2156599999999997
11
1.2786169999999999
21
58.9819169999999957
0
LINE
8
BLACK
6
CONTINUOUS
10
1.2786169999999999
20
58.9819169999999957
11
1.0180829999999998
21
58.7213829999999959
0
LINE
8
BLACK
6
CONTINUOUS
10
1.0180829999999998
20
58.7213829999999959
11
0.7843399999999999
21
58.4365659999999991
0
LINE
8
BLACK
6
CONTINUOUS
10
0.7843399999999999
20
58.4365659999999991
11
0.579639
21
58.1302099999999982
0
LINE
8
BLACK
6
CONTINUOUS
10
0.579639
20
58.1302099999999982
11
0.405952
21
57.8052649999999986
0
LINE
8
BLACK
6
CONTINUOUS
10
0.405952
20
57.8052649999999986
11
0.264952
21
57.4648599999999945
0
LINE
8
BLACK
6
CONTINUOUS
10
0.264952
20
57.4648599999999945
11
0.157996
21
57.1122739999999993
0
LINE
8
BLACK
6
CONTINUOUS
10
0.157996
20
57.1122739999999993
11
0.086115
21
56.7509029999999939
0
LINE
8
BLACK
6
CONTINUOUS
10
0.086115
20
56.7509029999999939
11
0.05
21
56.3842259999999982
0
LINE
8
BLACK
6
CONTINUOUS
10
0.05
20
56.3842259999999982
11
0.05
21
56.1999999999999957
0
LINE
8
BLACK
6
CONTINUOUS
10
0.05
20
56.1999999999999957
11
0.05
21
3.7999999999999998
0
LINE
8
BLACK
6
CONTINUOUS
10
0.05
20
3.7999999999999998
11
0.05
21
3.615774
0
LINE
8
BLACK
6
CONTINUOUS
10
0.05
20
3.615774
11
0.086115
21
3.2490969999999999
0
LINE
8
BLACK
6
CONTINUOUS
10
0.086115
20
3.2490969999999999
11
0.157996
21
2.8877259999999998
0
LINE
8
BLACK
6
CONTINUOUS
10
0.157996
20
2.8877259999999998
11
0.264952
21
2.5351399999999997
0
LINE
8
BLACK
6
CONTINUOUS
10
0.264952
20
2.5351399999999997
11
0.405952
21
2.1947350000000001
0
LINE
8
BLACK
6
CONTINUOUS
10
0.405952
20
2.1947350000000001
11
0.579639
21
1.8697899999999998
0
LINE
8
BLACK
6
CONTINUOUS
10
0.579639
20
1.8697899999999998
11
0.7843399999999999
21
1.563434
0
LINE
8
BLACK
6
CONTINUOUS
10
0.7843399999999999
20
1.563434
11
1.0180829999999998
21
1.2786169999999999
0
LINE
8
BLACK
6
CONTINUOUS
10
1.0180829999999998
20
1.2786169999999999
11
1.2786169999999999
21
1.0180829999999998
0
LINE
8
BLACK
6
CONTINUOUS
10
1.2786169999999999
20
1.0180829999999998
11
1.563434
21
0.7843399999999999
0
LINE
8
BLACK
6
CONTINUOUS
10
1.563434
20
0.7843399999999999
11
1.8697899999999998
21
0.579639
0
LINE
8
BLACK
6
CONTINUOUS
10
1.8697899999999998
20
0.579639
11
2.1947350000000001
21
0.405952
0
LINE
8
BLACK
6
CONTINUOUS
10
2.1947350000000001
20
0.405952
11
2.5351399999999997
21
0.264952
0
LINE
8
BLACK
6
CONTINUOUS
10
2.5351399999999997
20
0.264952
11
2.8877259999999998
21
0.157996
0
LINE
8
BLACK
6
CONTINUOUS
10
2.8877259999999998
20
0.157996
11
3.2490969999999999
21
0.086115
0
LINE
8
BLACK
6
CONTINUOUS
10
3.2490969999999999
20
0.086115
11
3.615774
21
0.05
0
LINE
8
BLACK
6
CONTINUOUS
10
3.615774
20
0.05
11
3.7999999999999998
21
0.05
0
LINE
8
BLACK
6
CONTINUOUS
10
3.7999999999999998
20
0.05
11
96.1999999999999886
21
0.05
0
LINE
8
BLACK
6
CONTINUOUS
10
96.1999999999999886
20
0.05
11
96.3842259999999982
21
0.05
0
LINE
8
BLACK
6
CONTINUOUS
10
96.3842259999999982
20
0.05
11
96.7509029999999939
21
0.086115
0
LINE
8
BLACK
6
CONTINUOUS
10
96.7509029999999939
20
0.086115
11
97.1122739999999993
21
0.157996
0
LINE
8
BLACK
6
CONTINUOUS
10
97.1122739999999993
20
0.157996
11
97.4648600000000016
21
0.264952
0
LINE
8
BLACK
6
CONTINUOUS
10
97.4648600000000016
20
0.264952
11
97.8052649999999915
21
0.405952
0
LINE
8
BLACK
6
CONTINUOUS
10
97.8052649999999915
20
0.405952
11
98.1302099999999911
21
0.579639
0
LINE
8
BLACK
6
CONTINUOUS
10
98.1302099999999911
20
0.579639
11
98.4365659999999991
21
0.7843399999999999
0
LINE
8
BLACK
6
CONTINUOUS
10
98.4365659999999991
20
0.7843399999999999
11
98.7213829999999888
21
1.0180829999999998
0
LINE
8
BLACK
6
CONTINUOUS
10
98.7213829999999888
20
1.0180829999999998
11
98.9819169999999957
21
1.2786169999999999
0
LINE
8
BLACK
6
CONTINUOUS
10
98.9819169999999957
20
1.2786169999999999
11
99.2156599999999997
21
1.563434
0
LINE
8
BLACK
6
CONTINUOUS
10
99.2156599999999997
20
1.563434
11
99.4203609999999998
21
1.8697899999999998
0
LINE
8
BLACK
6
CONTINUOUS
10
99.4203609999999998
20
1.8697899999999998
11
99.5940480000000008
21
2.1947350000000001
0
LINE
8
BLACK
6
CONTINUOUS
10
99.5940480000000008
20
2.1947350000000001
11
99.7350479999999919
21
2.5351399999999997
0
LINE
8
BLACK
6
CONTINUOUS
10
99.7350479999999919
20
2.5351399999999997
11
99.8420039999999887
21
2.8877259999999998
0
LINE
8
BLACK
6
CONTINUOUS
10
99.8420039999999887
20
2.8877259999999998
11
99.9138849999999934
21
3.2490969999999999
0
LINE
8
BLACK
6
CONTINUOUS
10
99.9138849999999934
20
3.2490969999999999
11
99.9499999999999886
21
3.615774
0
LINE
8
BLACK
6
CONTINUOUS
10
99.9499999999999886
20
3.615774
11
99.9499999999999886
21
3.7999999999999998
0
LINE
8
BLACK
6
CONTINUOUS
10
99.9499999999999886
20
3.7999999999999998
11
99.9499999999999886
21
56.1999999999999957
0
LINE
8
BLACK
6
CONTINUOUS
10
99.9499999999999886
20
56.1999999999999957
11
99.9499999999999886
21
56.3842259999999982
0
LINE
8
BLACK
6
CONTINUOUS
10
99.9499999999999886
20
56.3842259999999982
11
99.9138849999999934
21
56.7509029999999939
0
LINE
8
BLACK
6
CONTINUOUS
10
99.9138849999999934
20
56.7509029999999939
11
99.8420039999999887
21
57.1122739999999993
0
LINE
8
BLACK
6
CONTINUOUS
10
99.8420039999999887
20
57.1122739999999993
11
99.7350479999999919
21
57.4648599999999945
0
LINE
8
BLACK
6
CONTINUOUS
10
99.7350479999999919
20
57.4648599999999945
11
99.5940480000000008
21
57.8052649999999986
0
LINE
8
BLACK
6
CONTINUOUS
10
99.5940480000000008
20
57.8052649999999986
11
99.4203609999999998
21
58.1302099999999982
0
LINE
8
BLACK
6
CONTINUOUS
10
99.4203609999999998
20
58.1302099999999982
11
99.2156599999999997
21
58.4365659999999991
0
LINE
8
BLACK
6
CONTINUOUS
10
99.2156599999999997
20
58.4365659999999991
11
98.9819169999999957
21
58.7213829999999959
0
LINE
8
BLACK
6
CONTINUOUS
10
98.9819169999999957
20
58.7213829999999959
11
98.7213829999999888
21
58.9819169999999957
0
LINE
8
BLACK
6
CONTINUOUS
10
98.7213829999999888
20
58.9819169999999957
11
98.4365659999999991
21
59.2156599999999997
0
LINE
8
BLACK
6
CONTINUOUS
10
98.4365659999999991
20
59.2156599999999997
11
98.1302099999999911
21
59.4203609999999998
0
LINE
8
BLACK
6
CONTINUOUS
10
98.1302099999999911
20
59.4203609999999998
11
97.8052649999999915
21
59.5940480000000008
0
LINE
8
BLACK
6
CONTINUOUS
10
97.8052649999999915
20
59.5940480000000008
11
97.4648600000000016
21
59.735047999999999
0
LINE
8
BLACK
6
CONTINUOUS
10
97.4648600000000016
20
59.735047999999999
11
97.1122739999999993
21
59.8420039999999958
0
LINE
8
BLACK
6
CONTINUOUS
10
97.1122739999999993
20
59.8420039999999958
11
96.7509029999999939
21
59.9138850000000005
0
LINE
8
BLACK
6
CONTINUOUS
10
96.7509029999999939
20
59.9138850000000005
11
96.3842259999999982
21
59.9499999999999957
0
LINE
8
BLACK
6
CONTINUOUS
10
96.3842259999999982
20
59.9499999999999957
11
96.1999999999999886
21
59.9499999999999957
0
LINE
8
BLACK
6
CONTINUOUS
10
96.1999999999999886
20
59.9499999999999957
11
3.7999999999999998
21
59.9499999999999957
  0
ENDSEC
  0
EOF
