%TF.GenerationSoftware,KiCad,Pcbnew,9.0.1-9.0.1-0~ubuntu24.04.1*%
%TF.CreationDate,2025-04-30T23:19:22+03:00*%
%TF.ProjectId,HYB_ESPA,4859425f-4553-4504-912e-6b696361645f,V_0.1b*%
%TF.SameCoordinates,PX5f5e100PY5f5e100*%
%TF.FileFunction,Legend,Bot*%
%TF.FilePolarity,Positive*%
%FSLAX46Y46*%
G04 Gerber Fmt 4.6, Leading zero omitted, Abs format (unit mm)*
G04 Created by KiCad (PCBNEW 9.0.1-9.0.1-0~ubuntu24.04.1) date 2025-04-30 23:19:22*
%MOMM*%
%LPD*%
G01*
G04 APERTURE LIST*
%ADD10C,0.300000*%
%ADD11C,0.200000*%
G04 APERTURE END LIST*
D10*
X98300000Y8600000D02*
X84500000Y11500000D01*
X90800000Y350000D02*
X90800000Y5450000D01*
X47900000Y250000D02*
X47900000Y8600000D01*
X60100000Y53850000D02*
X60100000Y58950000D01*
X84300000Y250000D02*
X84300000Y5350000D01*
X700000Y14500000D02*
X9800000Y14500000D01*
X9800000Y9900000D01*
X700000Y9900000D01*
X700000Y14500000D01*
X69300000Y350000D02*
X69300000Y5450000D01*
X54300000Y250000D02*
X54300000Y5350000D01*
X34400000Y53800000D02*
X34400000Y58900000D01*
X98300000Y1000000D02*
X98300000Y8600000D01*
X62800000Y250000D02*
X62800000Y5350000D01*
X4800000Y450000D02*
X4800000Y5550000D01*
X60150000Y53850000D02*
X47050000Y53850000D01*
X61000000Y250000D02*
X61000000Y5350000D01*
X99800000Y53750000D02*
X86900000Y53750000D01*
X84500000Y11500000D02*
X61700000Y11500000D01*
X34400000Y53800000D02*
X21300000Y53800000D01*
X99800000Y53750000D02*
X99800000Y56800000D01*
X47000000Y53850000D02*
X47000000Y58950000D01*
X55200000Y22800000D02*
X55200000Y26700000D01*
X58000000Y22800000D02*
X58000000Y26700000D01*
X31400000Y350000D02*
X31400000Y5450000D01*
X47900000Y8600000D02*
X61700000Y11500000D01*
X18000000Y450000D02*
X18000000Y5550000D01*
X4400000Y9900000D02*
X4400000Y14300000D01*
X75900000Y250000D02*
X75900000Y5350000D01*
X77500000Y250000D02*
X77500000Y5350000D01*
X78900000Y53850000D02*
X65800000Y53850000D01*
X86900000Y53750000D02*
X86900000Y58850000D01*
X21300000Y53800000D02*
X21300000Y58900000D01*
X40000000Y350000D02*
X40000000Y5450000D01*
X92000000Y350000D02*
X92000000Y5450000D01*
X65800000Y53850000D02*
X65800000Y58950000D01*
X51700000Y29000000D02*
X61700000Y29000000D01*
X61700000Y22800000D01*
X51700000Y22800000D01*
X51700000Y29000000D01*
X6800000Y9900000D02*
X6800000Y14300000D01*
X78900000Y53850000D02*
X78900000Y58950000D01*
D11*
X51225564Y1532781D02*
X50558898Y1532781D01*
X50558898Y1532781D02*
X51225564Y532781D01*
X51225564Y532781D02*
X50558898Y532781D01*
X49654136Y532781D02*
X50225564Y532781D01*
X49939850Y532781D02*
X49939850Y1532781D01*
X49939850Y1532781D02*
X50035088Y1389924D01*
X50035088Y1389924D02*
X50130326Y1294686D01*
X50130326Y1294686D02*
X50225564Y1247067D01*
X60706517Y24185162D02*
X60801755Y24232781D01*
X60801755Y24232781D02*
X60944612Y24232781D01*
X60944612Y24232781D02*
X61087469Y24185162D01*
X61087469Y24185162D02*
X61182707Y24089924D01*
X61182707Y24089924D02*
X61230326Y23994686D01*
X61230326Y23994686D02*
X61277945Y23804210D01*
X61277945Y23804210D02*
X61277945Y23661353D01*
X61277945Y23661353D02*
X61230326Y23470877D01*
X61230326Y23470877D02*
X61182707Y23375639D01*
X61182707Y23375639D02*
X61087469Y23280400D01*
X61087469Y23280400D02*
X60944612Y23232781D01*
X60944612Y23232781D02*
X60849374Y23232781D01*
X60849374Y23232781D02*
X60706517Y23280400D01*
X60706517Y23280400D02*
X60658898Y23328020D01*
X60658898Y23328020D02*
X60658898Y23661353D01*
X60658898Y23661353D02*
X60849374Y23661353D01*
X60230326Y23232781D02*
X60230326Y24232781D01*
X60230326Y24232781D02*
X59658898Y23232781D01*
X59658898Y23232781D02*
X59658898Y24232781D01*
X59182707Y23232781D02*
X59182707Y24232781D01*
X59182707Y24232781D02*
X58944612Y24232781D01*
X58944612Y24232781D02*
X58801755Y24185162D01*
X58801755Y24185162D02*
X58706517Y24089924D01*
X58706517Y24089924D02*
X58658898Y23994686D01*
X58658898Y23994686D02*
X58611279Y23804210D01*
X58611279Y23804210D02*
X58611279Y23661353D01*
X58611279Y23661353D02*
X58658898Y23470877D01*
X58658898Y23470877D02*
X58706517Y23375639D01*
X58706517Y23375639D02*
X58801755Y23280400D01*
X58801755Y23280400D02*
X58944612Y23232781D01*
X58944612Y23232781D02*
X59182707Y23232781D01*
X54054136Y23332781D02*
X54530326Y23332781D01*
X54530326Y23332781D02*
X54530326Y24332781D01*
X53720802Y23856591D02*
X53387469Y23856591D01*
X53244612Y23332781D02*
X53720802Y23332781D01*
X53720802Y23332781D02*
X53720802Y24332781D01*
X53720802Y24332781D02*
X53244612Y24332781D01*
X52816040Y23332781D02*
X52816040Y24332781D01*
X52816040Y24332781D02*
X52577945Y24332781D01*
X52577945Y24332781D02*
X52435088Y24285162D01*
X52435088Y24285162D02*
X52339850Y24189924D01*
X52339850Y24189924D02*
X52292231Y24094686D01*
X52292231Y24094686D02*
X52244612Y23904210D01*
X52244612Y23904210D02*
X52244612Y23761353D01*
X52244612Y23761353D02*
X52292231Y23570877D01*
X52292231Y23570877D02*
X52339850Y23475639D01*
X52339850Y23475639D02*
X52435088Y23380400D01*
X52435088Y23380400D02*
X52577945Y23332781D01*
X52577945Y23332781D02*
X52816040Y23332781D01*
X34906517Y1885162D02*
X35001755Y1932781D01*
X35001755Y1932781D02*
X35144612Y1932781D01*
X35144612Y1932781D02*
X35287469Y1885162D01*
X35287469Y1885162D02*
X35382707Y1789924D01*
X35382707Y1789924D02*
X35430326Y1694686D01*
X35430326Y1694686D02*
X35477945Y1504210D01*
X35477945Y1504210D02*
X35477945Y1361353D01*
X35477945Y1361353D02*
X35430326Y1170877D01*
X35430326Y1170877D02*
X35382707Y1075639D01*
X35382707Y1075639D02*
X35287469Y980400D01*
X35287469Y980400D02*
X35144612Y932781D01*
X35144612Y932781D02*
X35049374Y932781D01*
X35049374Y932781D02*
X34906517Y980400D01*
X34906517Y980400D02*
X34858898Y1028020D01*
X34858898Y1028020D02*
X34858898Y1361353D01*
X34858898Y1361353D02*
X35049374Y1361353D01*
X34430326Y932781D02*
X34430326Y1932781D01*
X34430326Y1932781D02*
X33858898Y932781D01*
X33858898Y932781D02*
X33858898Y1932781D01*
X33382707Y932781D02*
X33382707Y1932781D01*
X33382707Y1932781D02*
X33144612Y1932781D01*
X33144612Y1932781D02*
X33001755Y1885162D01*
X33001755Y1885162D02*
X32906517Y1789924D01*
X32906517Y1789924D02*
X32858898Y1694686D01*
X32858898Y1694686D02*
X32811279Y1504210D01*
X32811279Y1504210D02*
X32811279Y1361353D01*
X32811279Y1361353D02*
X32858898Y1170877D01*
X32858898Y1170877D02*
X32906517Y1075639D01*
X32906517Y1075639D02*
X33001755Y980400D01*
X33001755Y980400D02*
X33144612Y932781D01*
X33144612Y932781D02*
X33382707Y932781D01*
X81025564Y1532781D02*
X80358898Y532781D01*
X80358898Y1532781D02*
X81025564Y532781D01*
X79454136Y532781D02*
X80025564Y532781D01*
X79739850Y532781D02*
X79739850Y1532781D01*
X79739850Y1532781D02*
X79835088Y1389924D01*
X79835088Y1389924D02*
X79930326Y1294686D01*
X79930326Y1294686D02*
X80025564Y1247067D01*
X57477945Y27818496D02*
X57001755Y27818496D01*
X57573183Y27532781D02*
X57239850Y28532781D01*
X57239850Y28532781D02*
X56906517Y27532781D01*
X56573183Y27532781D02*
X56573183Y28532781D01*
X55525565Y27532781D02*
X55858898Y28008972D01*
X56096993Y27532781D02*
X56096993Y28532781D01*
X56096993Y28532781D02*
X55716041Y28532781D01*
X55716041Y28532781D02*
X55620803Y28485162D01*
X55620803Y28485162D02*
X55573184Y28437543D01*
X55573184Y28437543D02*
X55525565Y28342305D01*
X55525565Y28342305D02*
X55525565Y28199448D01*
X55525565Y28199448D02*
X55573184Y28104210D01*
X55573184Y28104210D02*
X55620803Y28056591D01*
X55620803Y28056591D02*
X55716041Y28008972D01*
X55716041Y28008972D02*
X56096993Y28008972D01*
X65839850Y1008972D02*
X65839850Y532781D01*
X66173183Y1532781D02*
X65839850Y1008972D01*
X65839850Y1008972D02*
X65506517Y1532781D01*
X64649374Y532781D02*
X65220802Y532781D01*
X64935088Y532781D02*
X64935088Y1532781D01*
X64935088Y1532781D02*
X65030326Y1389924D01*
X65030326Y1389924D02*
X65125564Y1294686D01*
X65125564Y1294686D02*
X65220802Y1247067D01*
X57477945Y23380400D02*
X57335088Y23332781D01*
X57335088Y23332781D02*
X57096993Y23332781D01*
X57096993Y23332781D02*
X57001755Y23380400D01*
X57001755Y23380400D02*
X56954136Y23428020D01*
X56954136Y23428020D02*
X56906517Y23523258D01*
X56906517Y23523258D02*
X56906517Y23618496D01*
X56906517Y23618496D02*
X56954136Y23713734D01*
X56954136Y23713734D02*
X57001755Y23761353D01*
X57001755Y23761353D02*
X57096993Y23808972D01*
X57096993Y23808972D02*
X57287469Y23856591D01*
X57287469Y23856591D02*
X57382707Y23904210D01*
X57382707Y23904210D02*
X57430326Y23951829D01*
X57430326Y23951829D02*
X57477945Y24047067D01*
X57477945Y24047067D02*
X57477945Y24142305D01*
X57477945Y24142305D02*
X57430326Y24237543D01*
X57430326Y24237543D02*
X57382707Y24285162D01*
X57382707Y24285162D02*
X57287469Y24332781D01*
X57287469Y24332781D02*
X57049374Y24332781D01*
X57049374Y24332781D02*
X56906517Y24285162D01*
X56573183Y24332781D02*
X56335088Y23332781D01*
X56335088Y23332781D02*
X56144612Y24047067D01*
X56144612Y24047067D02*
X55954136Y23332781D01*
X55954136Y23332781D02*
X55716041Y24332781D01*
X38777945Y1218496D02*
X38301755Y1218496D01*
X38873183Y932781D02*
X38539850Y1932781D01*
X38539850Y1932781D02*
X38206517Y932781D01*
X37873183Y932781D02*
X37873183Y1932781D01*
X36825565Y932781D02*
X37158898Y1408972D01*
X37396993Y932781D02*
X37396993Y1932781D01*
X37396993Y1932781D02*
X37016041Y1932781D01*
X37016041Y1932781D02*
X36920803Y1885162D01*
X36920803Y1885162D02*
X36873184Y1837543D01*
X36873184Y1837543D02*
X36825565Y1742305D01*
X36825565Y1742305D02*
X36825565Y1599448D01*
X36825565Y1599448D02*
X36873184Y1504210D01*
X36873184Y1504210D02*
X36920803Y1456591D01*
X36920803Y1456591D02*
X37016041Y1408972D01*
X37016041Y1408972D02*
X37396993Y1408972D01*
X8873183Y11432781D02*
X8301755Y11432781D01*
X8587469Y10432781D02*
X8587469Y11432781D01*
X7635088Y10956591D02*
X7492231Y10908972D01*
X7492231Y10908972D02*
X7444612Y10861353D01*
X7444612Y10861353D02*
X7396993Y10766115D01*
X7396993Y10766115D02*
X7396993Y10623258D01*
X7396993Y10623258D02*
X7444612Y10528020D01*
X7444612Y10528020D02*
X7492231Y10480400D01*
X7492231Y10480400D02*
X7587469Y10432781D01*
X7587469Y10432781D02*
X7968421Y10432781D01*
X7968421Y10432781D02*
X7968421Y11432781D01*
X7968421Y11432781D02*
X7635088Y11432781D01*
X7635088Y11432781D02*
X7539850Y11385162D01*
X7539850Y11385162D02*
X7492231Y11337543D01*
X7492231Y11337543D02*
X7444612Y11242305D01*
X7444612Y11242305D02*
X7444612Y11147067D01*
X7444612Y11147067D02*
X7492231Y11051829D01*
X7492231Y11051829D02*
X7539850Y11004210D01*
X7539850Y11004210D02*
X7635088Y10956591D01*
X7635088Y10956591D02*
X7968421Y10956591D01*
X3406517Y11285162D02*
X3501755Y11332781D01*
X3501755Y11332781D02*
X3644612Y11332781D01*
X3644612Y11332781D02*
X3787469Y11285162D01*
X3787469Y11285162D02*
X3882707Y11189924D01*
X3882707Y11189924D02*
X3930326Y11094686D01*
X3930326Y11094686D02*
X3977945Y10904210D01*
X3977945Y10904210D02*
X3977945Y10761353D01*
X3977945Y10761353D02*
X3930326Y10570877D01*
X3930326Y10570877D02*
X3882707Y10475639D01*
X3882707Y10475639D02*
X3787469Y10380400D01*
X3787469Y10380400D02*
X3644612Y10332781D01*
X3644612Y10332781D02*
X3549374Y10332781D01*
X3549374Y10332781D02*
X3406517Y10380400D01*
X3406517Y10380400D02*
X3358898Y10428020D01*
X3358898Y10428020D02*
X3358898Y10761353D01*
X3358898Y10761353D02*
X3549374Y10761353D01*
X2930326Y10332781D02*
X2930326Y11332781D01*
X2930326Y11332781D02*
X2358898Y10332781D01*
X2358898Y10332781D02*
X2358898Y11332781D01*
X1882707Y10332781D02*
X1882707Y11332781D01*
X1882707Y11332781D02*
X1644612Y11332781D01*
X1644612Y11332781D02*
X1501755Y11285162D01*
X1501755Y11285162D02*
X1406517Y11189924D01*
X1406517Y11189924D02*
X1358898Y11094686D01*
X1358898Y11094686D02*
X1311279Y10904210D01*
X1311279Y10904210D02*
X1311279Y10761353D01*
X1311279Y10761353D02*
X1358898Y10570877D01*
X1358898Y10570877D02*
X1406517Y10475639D01*
X1406517Y10475639D02*
X1501755Y10380400D01*
X1501755Y10380400D02*
X1644612Y10332781D01*
X1644612Y10332781D02*
X1882707Y10332781D01*
X30830326Y54432781D02*
X30830326Y55432781D01*
X30830326Y55432781D02*
X30496993Y54718496D01*
X30496993Y54718496D02*
X30163660Y55432781D01*
X30163660Y55432781D02*
X30163660Y54432781D01*
X29496993Y55432781D02*
X29306517Y55432781D01*
X29306517Y55432781D02*
X29211279Y55385162D01*
X29211279Y55385162D02*
X29116041Y55289924D01*
X29116041Y55289924D02*
X29068422Y55099448D01*
X29068422Y55099448D02*
X29068422Y54766115D01*
X29068422Y54766115D02*
X29116041Y54575639D01*
X29116041Y54575639D02*
X29211279Y54480400D01*
X29211279Y54480400D02*
X29306517Y54432781D01*
X29306517Y54432781D02*
X29496993Y54432781D01*
X29496993Y54432781D02*
X29592231Y54480400D01*
X29592231Y54480400D02*
X29687469Y54575639D01*
X29687469Y54575639D02*
X29735088Y54766115D01*
X29735088Y54766115D02*
X29735088Y55099448D01*
X29735088Y55099448D02*
X29687469Y55289924D01*
X29687469Y55289924D02*
X29592231Y55385162D01*
X29592231Y55385162D02*
X29496993Y55432781D01*
X28782707Y55432781D02*
X28211279Y55432781D01*
X28496993Y54432781D02*
X28496993Y55432781D01*
X27687469Y55432781D02*
X27496993Y55432781D01*
X27496993Y55432781D02*
X27401755Y55385162D01*
X27401755Y55385162D02*
X27306517Y55289924D01*
X27306517Y55289924D02*
X27258898Y55099448D01*
X27258898Y55099448D02*
X27258898Y54766115D01*
X27258898Y54766115D02*
X27306517Y54575639D01*
X27306517Y54575639D02*
X27401755Y54480400D01*
X27401755Y54480400D02*
X27496993Y54432781D01*
X27496993Y54432781D02*
X27687469Y54432781D01*
X27687469Y54432781D02*
X27782707Y54480400D01*
X27782707Y54480400D02*
X27877945Y54575639D01*
X27877945Y54575639D02*
X27925564Y54766115D01*
X27925564Y54766115D02*
X27925564Y55099448D01*
X27925564Y55099448D02*
X27877945Y55289924D01*
X27877945Y55289924D02*
X27782707Y55385162D01*
X27782707Y55385162D02*
X27687469Y55432781D01*
X26258898Y54432781D02*
X26592231Y54908972D01*
X26830326Y54432781D02*
X26830326Y55432781D01*
X26830326Y55432781D02*
X26449374Y55432781D01*
X26449374Y55432781D02*
X26354136Y55385162D01*
X26354136Y55385162D02*
X26306517Y55337543D01*
X26306517Y55337543D02*
X26258898Y55242305D01*
X26258898Y55242305D02*
X26258898Y55099448D01*
X26258898Y55099448D02*
X26306517Y55004210D01*
X26306517Y55004210D02*
X26354136Y54956591D01*
X26354136Y54956591D02*
X26449374Y54908972D01*
X26449374Y54908972D02*
X26830326Y54908972D01*
X26068422Y54337543D02*
X25306517Y54337543D01*
X25068421Y54956591D02*
X24735088Y54956591D01*
X24592231Y54432781D02*
X25068421Y54432781D01*
X25068421Y54432781D02*
X25068421Y55432781D01*
X25068421Y55432781D02*
X24592231Y55432781D01*
X7558898Y42232781D02*
X7892231Y42708972D01*
X8130326Y42232781D02*
X8130326Y43232781D01*
X8130326Y43232781D02*
X7749374Y43232781D01*
X7749374Y43232781D02*
X7654136Y43185162D01*
X7654136Y43185162D02*
X7606517Y43137543D01*
X7606517Y43137543D02*
X7558898Y43042305D01*
X7558898Y43042305D02*
X7558898Y42899448D01*
X7558898Y42899448D02*
X7606517Y42804210D01*
X7606517Y42804210D02*
X7654136Y42756591D01*
X7654136Y42756591D02*
X7749374Y42708972D01*
X7749374Y42708972D02*
X8130326Y42708972D01*
X7130326Y42756591D02*
X6796993Y42756591D01*
X6654136Y42232781D02*
X7130326Y42232781D01*
X7130326Y42232781D02*
X7130326Y43232781D01*
X7130326Y43232781D02*
X6654136Y43232781D01*
X6273183Y42280400D02*
X6130326Y42232781D01*
X6130326Y42232781D02*
X5892231Y42232781D01*
X5892231Y42232781D02*
X5796993Y42280400D01*
X5796993Y42280400D02*
X5749374Y42328020D01*
X5749374Y42328020D02*
X5701755Y42423258D01*
X5701755Y42423258D02*
X5701755Y42518496D01*
X5701755Y42518496D02*
X5749374Y42613734D01*
X5749374Y42613734D02*
X5796993Y42661353D01*
X5796993Y42661353D02*
X5892231Y42708972D01*
X5892231Y42708972D02*
X6082707Y42756591D01*
X6082707Y42756591D02*
X6177945Y42804210D01*
X6177945Y42804210D02*
X6225564Y42851829D01*
X6225564Y42851829D02*
X6273183Y42947067D01*
X6273183Y42947067D02*
X6273183Y43042305D01*
X6273183Y43042305D02*
X6225564Y43137543D01*
X6225564Y43137543D02*
X6177945Y43185162D01*
X6177945Y43185162D02*
X6082707Y43232781D01*
X6082707Y43232781D02*
X5844612Y43232781D01*
X5844612Y43232781D02*
X5701755Y43185162D01*
X5273183Y42756591D02*
X4939850Y42756591D01*
X4796993Y42232781D02*
X5273183Y42232781D01*
X5273183Y42232781D02*
X5273183Y43232781D01*
X5273183Y43232781D02*
X4796993Y43232781D01*
X4511278Y43232781D02*
X3939850Y43232781D01*
X4225564Y42232781D02*
X4225564Y43232781D01*
X2892230Y42280400D02*
X2749373Y42232781D01*
X2749373Y42232781D02*
X2511278Y42232781D01*
X2511278Y42232781D02*
X2416040Y42280400D01*
X2416040Y42280400D02*
X2368421Y42328020D01*
X2368421Y42328020D02*
X2320802Y42423258D01*
X2320802Y42423258D02*
X2320802Y42518496D01*
X2320802Y42518496D02*
X2368421Y42613734D01*
X2368421Y42613734D02*
X2416040Y42661353D01*
X2416040Y42661353D02*
X2511278Y42708972D01*
X2511278Y42708972D02*
X2701754Y42756591D01*
X2701754Y42756591D02*
X2796992Y42804210D01*
X2796992Y42804210D02*
X2844611Y42851829D01*
X2844611Y42851829D02*
X2892230Y42947067D01*
X2892230Y42947067D02*
X2892230Y43042305D01*
X2892230Y43042305D02*
X2844611Y43137543D01*
X2844611Y43137543D02*
X2796992Y43185162D01*
X2796992Y43185162D02*
X2701754Y43232781D01*
X2701754Y43232781D02*
X2463659Y43232781D01*
X2463659Y43232781D02*
X2320802Y43185162D01*
X1987468Y43232781D02*
X1749373Y42232781D01*
X1749373Y42232781D02*
X1558897Y42947067D01*
X1558897Y42947067D02*
X1368421Y42232781D01*
X1368421Y42232781D02*
X1130326Y43232781D01*
X96230326Y54432781D02*
X96230326Y55432781D01*
X96230326Y55432781D02*
X95896993Y54718496D01*
X95896993Y54718496D02*
X95563660Y55432781D01*
X95563660Y55432781D02*
X95563660Y54432781D01*
X94896993Y55432781D02*
X94706517Y55432781D01*
X94706517Y55432781D02*
X94611279Y55385162D01*
X94611279Y55385162D02*
X94516041Y55289924D01*
X94516041Y55289924D02*
X94468422Y55099448D01*
X94468422Y55099448D02*
X94468422Y54766115D01*
X94468422Y54766115D02*
X94516041Y54575639D01*
X94516041Y54575639D02*
X94611279Y54480400D01*
X94611279Y54480400D02*
X94706517Y54432781D01*
X94706517Y54432781D02*
X94896993Y54432781D01*
X94896993Y54432781D02*
X94992231Y54480400D01*
X94992231Y54480400D02*
X95087469Y54575639D01*
X95087469Y54575639D02*
X95135088Y54766115D01*
X95135088Y54766115D02*
X95135088Y55099448D01*
X95135088Y55099448D02*
X95087469Y55289924D01*
X95087469Y55289924D02*
X94992231Y55385162D01*
X94992231Y55385162D02*
X94896993Y55432781D01*
X94182707Y55432781D02*
X93611279Y55432781D01*
X93896993Y54432781D02*
X93896993Y55432781D01*
X93087469Y55432781D02*
X92896993Y55432781D01*
X92896993Y55432781D02*
X92801755Y55385162D01*
X92801755Y55385162D02*
X92706517Y55289924D01*
X92706517Y55289924D02*
X92658898Y55099448D01*
X92658898Y55099448D02*
X92658898Y54766115D01*
X92658898Y54766115D02*
X92706517Y54575639D01*
X92706517Y54575639D02*
X92801755Y54480400D01*
X92801755Y54480400D02*
X92896993Y54432781D01*
X92896993Y54432781D02*
X93087469Y54432781D01*
X93087469Y54432781D02*
X93182707Y54480400D01*
X93182707Y54480400D02*
X93277945Y54575639D01*
X93277945Y54575639D02*
X93325564Y54766115D01*
X93325564Y54766115D02*
X93325564Y55099448D01*
X93325564Y55099448D02*
X93277945Y55289924D01*
X93277945Y55289924D02*
X93182707Y55385162D01*
X93182707Y55385162D02*
X93087469Y55432781D01*
X91658898Y54432781D02*
X91992231Y54908972D01*
X92230326Y54432781D02*
X92230326Y55432781D01*
X92230326Y55432781D02*
X91849374Y55432781D01*
X91849374Y55432781D02*
X91754136Y55385162D01*
X91754136Y55385162D02*
X91706517Y55337543D01*
X91706517Y55337543D02*
X91658898Y55242305D01*
X91658898Y55242305D02*
X91658898Y55099448D01*
X91658898Y55099448D02*
X91706517Y55004210D01*
X91706517Y55004210D02*
X91754136Y54956591D01*
X91754136Y54956591D02*
X91849374Y54908972D01*
X91849374Y54908972D02*
X92230326Y54908972D01*
X91468422Y54337543D02*
X90706517Y54337543D01*
X90563659Y55432781D02*
X89896993Y54432781D01*
X89896993Y55432781D02*
X90563659Y54432781D01*
X99430326Y34332781D02*
X99430326Y35332781D01*
X99430326Y35332781D02*
X99049374Y35332781D01*
X99049374Y35332781D02*
X98954136Y35285162D01*
X98954136Y35285162D02*
X98906517Y35237543D01*
X98906517Y35237543D02*
X98858898Y35142305D01*
X98858898Y35142305D02*
X98858898Y34999448D01*
X98858898Y34999448D02*
X98906517Y34904210D01*
X98906517Y34904210D02*
X98954136Y34856591D01*
X98954136Y34856591D02*
X99049374Y34808972D01*
X99049374Y34808972D02*
X99430326Y34808972D01*
X98525564Y35332781D02*
X98287469Y34332781D01*
X98287469Y34332781D02*
X98096993Y35047067D01*
X98096993Y35047067D02*
X97906517Y34332781D01*
X97906517Y34332781D02*
X97668422Y35332781D01*
X97287469Y34332781D02*
X97287469Y35332781D01*
X97287469Y35332781D02*
X96954136Y34618496D01*
X96954136Y34618496D02*
X96620803Y35332781D01*
X96620803Y35332781D02*
X96620803Y34332781D01*
X96192231Y35237543D02*
X96144612Y35285162D01*
X96144612Y35285162D02*
X96049374Y35332781D01*
X96049374Y35332781D02*
X95811279Y35332781D01*
X95811279Y35332781D02*
X95716041Y35285162D01*
X95716041Y35285162D02*
X95668422Y35237543D01*
X95668422Y35237543D02*
X95620803Y35142305D01*
X95620803Y35142305D02*
X95620803Y35047067D01*
X95620803Y35047067D02*
X95668422Y34904210D01*
X95668422Y34904210D02*
X96239850Y34332781D01*
X96239850Y34332781D02*
X95620803Y34332781D01*
X5930326Y53232781D02*
X5930326Y52423258D01*
X5930326Y52423258D02*
X5882707Y52328020D01*
X5882707Y52328020D02*
X5835088Y52280400D01*
X5835088Y52280400D02*
X5739850Y52232781D01*
X5739850Y52232781D02*
X5549374Y52232781D01*
X5549374Y52232781D02*
X5454136Y52280400D01*
X5454136Y52280400D02*
X5406517Y52328020D01*
X5406517Y52328020D02*
X5358898Y52423258D01*
X5358898Y52423258D02*
X5358898Y53232781D01*
X4930326Y52280400D02*
X4787469Y52232781D01*
X4787469Y52232781D02*
X4549374Y52232781D01*
X4549374Y52232781D02*
X4454136Y52280400D01*
X4454136Y52280400D02*
X4406517Y52328020D01*
X4406517Y52328020D02*
X4358898Y52423258D01*
X4358898Y52423258D02*
X4358898Y52518496D01*
X4358898Y52518496D02*
X4406517Y52613734D01*
X4406517Y52613734D02*
X4454136Y52661353D01*
X4454136Y52661353D02*
X4549374Y52708972D01*
X4549374Y52708972D02*
X4739850Y52756591D01*
X4739850Y52756591D02*
X4835088Y52804210D01*
X4835088Y52804210D02*
X4882707Y52851829D01*
X4882707Y52851829D02*
X4930326Y52947067D01*
X4930326Y52947067D02*
X4930326Y53042305D01*
X4930326Y53042305D02*
X4882707Y53137543D01*
X4882707Y53137543D02*
X4835088Y53185162D01*
X4835088Y53185162D02*
X4739850Y53232781D01*
X4739850Y53232781D02*
X4501755Y53232781D01*
X4501755Y53232781D02*
X4358898Y53185162D01*
X3596993Y52756591D02*
X3454136Y52708972D01*
X3454136Y52708972D02*
X3406517Y52661353D01*
X3406517Y52661353D02*
X3358898Y52566115D01*
X3358898Y52566115D02*
X3358898Y52423258D01*
X3358898Y52423258D02*
X3406517Y52328020D01*
X3406517Y52328020D02*
X3454136Y52280400D01*
X3454136Y52280400D02*
X3549374Y52232781D01*
X3549374Y52232781D02*
X3930326Y52232781D01*
X3930326Y52232781D02*
X3930326Y53232781D01*
X3930326Y53232781D02*
X3596993Y53232781D01*
X3596993Y53232781D02*
X3501755Y53185162D01*
X3501755Y53185162D02*
X3454136Y53137543D01*
X3454136Y53137543D02*
X3406517Y53042305D01*
X3406517Y53042305D02*
X3406517Y52947067D01*
X3406517Y52947067D02*
X3454136Y52851829D01*
X3454136Y52851829D02*
X3501755Y52804210D01*
X3501755Y52804210D02*
X3596993Y52756591D01*
X3596993Y52756591D02*
X3930326Y52756591D01*
X1596993Y52328020D02*
X1644612Y52280400D01*
X1644612Y52280400D02*
X1787469Y52232781D01*
X1787469Y52232781D02*
X1882707Y52232781D01*
X1882707Y52232781D02*
X2025564Y52280400D01*
X2025564Y52280400D02*
X2120802Y52375639D01*
X2120802Y52375639D02*
X2168421Y52470877D01*
X2168421Y52470877D02*
X2216040Y52661353D01*
X2216040Y52661353D02*
X2216040Y52804210D01*
X2216040Y52804210D02*
X2168421Y52994686D01*
X2168421Y52994686D02*
X2120802Y53089924D01*
X2120802Y53089924D02*
X2025564Y53185162D01*
X2025564Y53185162D02*
X1882707Y53232781D01*
X1882707Y53232781D02*
X1787469Y53232781D01*
X1787469Y53232781D02*
X1644612Y53185162D01*
X1644612Y53185162D02*
X1596993Y53137543D01*
X6273183Y11332781D02*
X5701755Y11332781D01*
X5987469Y10332781D02*
X5987469Y11332781D01*
X5368421Y10856591D02*
X5035088Y10856591D01*
X4892231Y10332781D02*
X5368421Y10332781D01*
X5368421Y10332781D02*
X5368421Y11332781D01*
X5368421Y11332781D02*
X4892231Y11332781D01*
X56530326Y54432781D02*
X56530326Y55432781D01*
X56530326Y55432781D02*
X56196993Y54718496D01*
X56196993Y54718496D02*
X55863660Y55432781D01*
X55863660Y55432781D02*
X55863660Y54432781D01*
X55196993Y55432781D02*
X55006517Y55432781D01*
X55006517Y55432781D02*
X54911279Y55385162D01*
X54911279Y55385162D02*
X54816041Y55289924D01*
X54816041Y55289924D02*
X54768422Y55099448D01*
X54768422Y55099448D02*
X54768422Y54766115D01*
X54768422Y54766115D02*
X54816041Y54575639D01*
X54816041Y54575639D02*
X54911279Y54480400D01*
X54911279Y54480400D02*
X55006517Y54432781D01*
X55006517Y54432781D02*
X55196993Y54432781D01*
X55196993Y54432781D02*
X55292231Y54480400D01*
X55292231Y54480400D02*
X55387469Y54575639D01*
X55387469Y54575639D02*
X55435088Y54766115D01*
X55435088Y54766115D02*
X55435088Y55099448D01*
X55435088Y55099448D02*
X55387469Y55289924D01*
X55387469Y55289924D02*
X55292231Y55385162D01*
X55292231Y55385162D02*
X55196993Y55432781D01*
X54482707Y55432781D02*
X53911279Y55432781D01*
X54196993Y54432781D02*
X54196993Y55432781D01*
X53387469Y55432781D02*
X53196993Y55432781D01*
X53196993Y55432781D02*
X53101755Y55385162D01*
X53101755Y55385162D02*
X53006517Y55289924D01*
X53006517Y55289924D02*
X52958898Y55099448D01*
X52958898Y55099448D02*
X52958898Y54766115D01*
X52958898Y54766115D02*
X53006517Y54575639D01*
X53006517Y54575639D02*
X53101755Y54480400D01*
X53101755Y54480400D02*
X53196993Y54432781D01*
X53196993Y54432781D02*
X53387469Y54432781D01*
X53387469Y54432781D02*
X53482707Y54480400D01*
X53482707Y54480400D02*
X53577945Y54575639D01*
X53577945Y54575639D02*
X53625564Y54766115D01*
X53625564Y54766115D02*
X53625564Y55099448D01*
X53625564Y55099448D02*
X53577945Y55289924D01*
X53577945Y55289924D02*
X53482707Y55385162D01*
X53482707Y55385162D02*
X53387469Y55432781D01*
X51958898Y54432781D02*
X52292231Y54908972D01*
X52530326Y54432781D02*
X52530326Y55432781D01*
X52530326Y55432781D02*
X52149374Y55432781D01*
X52149374Y55432781D02*
X52054136Y55385162D01*
X52054136Y55385162D02*
X52006517Y55337543D01*
X52006517Y55337543D02*
X51958898Y55242305D01*
X51958898Y55242305D02*
X51958898Y55099448D01*
X51958898Y55099448D02*
X52006517Y55004210D01*
X52006517Y55004210D02*
X52054136Y54956591D01*
X52054136Y54956591D02*
X52149374Y54908972D01*
X52149374Y54908972D02*
X52530326Y54908972D01*
X51768422Y54337543D02*
X51006517Y54337543D01*
X50863659Y55432781D02*
X50196993Y55432781D01*
X50196993Y55432781D02*
X50863659Y54432781D01*
X50863659Y54432781D02*
X50196993Y54432781D01*
X87725564Y1532781D02*
X87058898Y532781D01*
X87058898Y1532781D02*
X87725564Y532781D01*
X86725564Y1437543D02*
X86677945Y1485162D01*
X86677945Y1485162D02*
X86582707Y1532781D01*
X86582707Y1532781D02*
X86344612Y1532781D01*
X86344612Y1532781D02*
X86249374Y1485162D01*
X86249374Y1485162D02*
X86201755Y1437543D01*
X86201755Y1437543D02*
X86154136Y1342305D01*
X86154136Y1342305D02*
X86154136Y1247067D01*
X86154136Y1247067D02*
X86201755Y1104210D01*
X86201755Y1104210D02*
X86773183Y532781D01*
X86773183Y532781D02*
X86154136Y532781D01*
X99430326Y27632781D02*
X99430326Y28632781D01*
X99430326Y28632781D02*
X99049374Y28632781D01*
X99049374Y28632781D02*
X98954136Y28585162D01*
X98954136Y28585162D02*
X98906517Y28537543D01*
X98906517Y28537543D02*
X98858898Y28442305D01*
X98858898Y28442305D02*
X98858898Y28299448D01*
X98858898Y28299448D02*
X98906517Y28204210D01*
X98906517Y28204210D02*
X98954136Y28156591D01*
X98954136Y28156591D02*
X99049374Y28108972D01*
X99049374Y28108972D02*
X99430326Y28108972D01*
X98525564Y28632781D02*
X98287469Y27632781D01*
X98287469Y27632781D02*
X98096993Y28347067D01*
X98096993Y28347067D02*
X97906517Y27632781D01*
X97906517Y27632781D02*
X97668422Y28632781D01*
X97287469Y27632781D02*
X97287469Y28632781D01*
X97287469Y28632781D02*
X96954136Y27918496D01*
X96954136Y27918496D02*
X96620803Y28632781D01*
X96620803Y28632781D02*
X96620803Y27632781D01*
X95620803Y27632781D02*
X96192231Y27632781D01*
X95906517Y27632781D02*
X95906517Y28632781D01*
X95906517Y28632781D02*
X96001755Y28489924D01*
X96001755Y28489924D02*
X96096993Y28394686D01*
X96096993Y28394686D02*
X96192231Y28347067D01*
X58025564Y1532781D02*
X57358898Y1532781D01*
X57358898Y1532781D02*
X58025564Y532781D01*
X58025564Y532781D02*
X57358898Y532781D01*
X57025564Y1437543D02*
X56977945Y1485162D01*
X56977945Y1485162D02*
X56882707Y1532781D01*
X56882707Y1532781D02*
X56644612Y1532781D01*
X56644612Y1532781D02*
X56549374Y1485162D01*
X56549374Y1485162D02*
X56501755Y1437543D01*
X56501755Y1437543D02*
X56454136Y1342305D01*
X56454136Y1342305D02*
X56454136Y1247067D01*
X56454136Y1247067D02*
X56501755Y1104210D01*
X56501755Y1104210D02*
X57073183Y532781D01*
X57073183Y532781D02*
X56454136Y532781D01*
X9506517Y1885162D02*
X9601755Y1932781D01*
X9601755Y1932781D02*
X9744612Y1932781D01*
X9744612Y1932781D02*
X9887469Y1885162D01*
X9887469Y1885162D02*
X9982707Y1789924D01*
X9982707Y1789924D02*
X10030326Y1694686D01*
X10030326Y1694686D02*
X10077945Y1504210D01*
X10077945Y1504210D02*
X10077945Y1361353D01*
X10077945Y1361353D02*
X10030326Y1170877D01*
X10030326Y1170877D02*
X9982707Y1075639D01*
X9982707Y1075639D02*
X9887469Y980400D01*
X9887469Y980400D02*
X9744612Y932781D01*
X9744612Y932781D02*
X9649374Y932781D01*
X9649374Y932781D02*
X9506517Y980400D01*
X9506517Y980400D02*
X9458898Y1028020D01*
X9458898Y1028020D02*
X9458898Y1361353D01*
X9458898Y1361353D02*
X9649374Y1361353D01*
X9030326Y932781D02*
X9030326Y1932781D01*
X9030326Y1932781D02*
X8458898Y932781D01*
X8458898Y932781D02*
X8458898Y1932781D01*
X7982707Y932781D02*
X7982707Y1932781D01*
X7982707Y1932781D02*
X7744612Y1932781D01*
X7744612Y1932781D02*
X7601755Y1885162D01*
X7601755Y1885162D02*
X7506517Y1789924D01*
X7506517Y1789924D02*
X7458898Y1694686D01*
X7458898Y1694686D02*
X7411279Y1504210D01*
X7411279Y1504210D02*
X7411279Y1361353D01*
X7411279Y1361353D02*
X7458898Y1170877D01*
X7458898Y1170877D02*
X7506517Y1075639D01*
X7506517Y1075639D02*
X7601755Y980400D01*
X7601755Y980400D02*
X7744612Y932781D01*
X7744612Y932781D02*
X7982707Y932781D01*
X98730326Y19613734D02*
X97968422Y19613734D01*
X98349374Y19232781D02*
X98349374Y19994686D01*
X97016041Y20232781D02*
X97492231Y20232781D01*
X97492231Y20232781D02*
X97539850Y19756591D01*
X97539850Y19756591D02*
X97492231Y19804210D01*
X97492231Y19804210D02*
X97396993Y19851829D01*
X97396993Y19851829D02*
X97158898Y19851829D01*
X97158898Y19851829D02*
X97063660Y19804210D01*
X97063660Y19804210D02*
X97016041Y19756591D01*
X97016041Y19756591D02*
X96968422Y19661353D01*
X96968422Y19661353D02*
X96968422Y19423258D01*
X96968422Y19423258D02*
X97016041Y19328020D01*
X97016041Y19328020D02*
X97063660Y19280400D01*
X97063660Y19280400D02*
X97158898Y19232781D01*
X97158898Y19232781D02*
X97396993Y19232781D01*
X97396993Y19232781D02*
X97492231Y19280400D01*
X97492231Y19280400D02*
X97539850Y19328020D01*
X96682707Y20232781D02*
X96349374Y19232781D01*
X96349374Y19232781D02*
X96016041Y20232781D01*
X72639850Y1008972D02*
X72639850Y532781D01*
X72973183Y1532781D02*
X72639850Y1008972D01*
X72639850Y1008972D02*
X72306517Y1532781D01*
X72020802Y1437543D02*
X71973183Y1485162D01*
X71973183Y1485162D02*
X71877945Y1532781D01*
X71877945Y1532781D02*
X71639850Y1532781D01*
X71639850Y1532781D02*
X71544612Y1485162D01*
X71544612Y1485162D02*
X71496993Y1437543D01*
X71496993Y1437543D02*
X71449374Y1342305D01*
X71449374Y1342305D02*
X71449374Y1247067D01*
X71449374Y1247067D02*
X71496993Y1104210D01*
X71496993Y1104210D02*
X72068421Y532781D01*
X72068421Y532781D02*
X71449374Y532781D01*
X16230326Y1313734D02*
X15468422Y1313734D01*
X15849374Y932781D02*
X15849374Y1694686D01*
X15039850Y1837543D02*
X14992231Y1885162D01*
X14992231Y1885162D02*
X14896993Y1932781D01*
X14896993Y1932781D02*
X14658898Y1932781D01*
X14658898Y1932781D02*
X14563660Y1885162D01*
X14563660Y1885162D02*
X14516041Y1837543D01*
X14516041Y1837543D02*
X14468422Y1742305D01*
X14468422Y1742305D02*
X14468422Y1647067D01*
X14468422Y1647067D02*
X14516041Y1504210D01*
X14516041Y1504210D02*
X15087469Y932781D01*
X15087469Y932781D02*
X14468422Y932781D01*
X13611279Y1599448D02*
X13611279Y932781D01*
X13849374Y1980400D02*
X14087469Y1266115D01*
X14087469Y1266115D02*
X13468422Y1266115D01*
X13230326Y1932781D02*
X12896993Y932781D01*
X12896993Y932781D02*
X12563660Y1932781D01*
X14730326Y17332781D02*
X14730326Y18332781D01*
X14730326Y18332781D02*
X14396993Y17618496D01*
X14396993Y17618496D02*
X14063660Y18332781D01*
X14063660Y18332781D02*
X14063660Y17332781D01*
X13587469Y17332781D02*
X13587469Y18332781D01*
X12539851Y17428020D02*
X12587470Y17380400D01*
X12587470Y17380400D02*
X12730327Y17332781D01*
X12730327Y17332781D02*
X12825565Y17332781D01*
X12825565Y17332781D02*
X12968422Y17380400D01*
X12968422Y17380400D02*
X13063660Y17475639D01*
X13063660Y17475639D02*
X13111279Y17570877D01*
X13111279Y17570877D02*
X13158898Y17761353D01*
X13158898Y17761353D02*
X13158898Y17904210D01*
X13158898Y17904210D02*
X13111279Y18094686D01*
X13111279Y18094686D02*
X13063660Y18189924D01*
X13063660Y18189924D02*
X12968422Y18285162D01*
X12968422Y18285162D02*
X12825565Y18332781D01*
X12825565Y18332781D02*
X12730327Y18332781D01*
X12730327Y18332781D02*
X12587470Y18285162D01*
X12587470Y18285162D02*
X12539851Y18237543D01*
X11539851Y17332781D02*
X11873184Y17808972D01*
X12111279Y17332781D02*
X12111279Y18332781D01*
X12111279Y18332781D02*
X11730327Y18332781D01*
X11730327Y18332781D02*
X11635089Y18285162D01*
X11635089Y18285162D02*
X11587470Y18237543D01*
X11587470Y18237543D02*
X11539851Y18142305D01*
X11539851Y18142305D02*
X11539851Y17999448D01*
X11539851Y17999448D02*
X11587470Y17904210D01*
X11587470Y17904210D02*
X11635089Y17856591D01*
X11635089Y17856591D02*
X11730327Y17808972D01*
X11730327Y17808972D02*
X12111279Y17808972D01*
X10920803Y18332781D02*
X10730327Y18332781D01*
X10730327Y18332781D02*
X10635089Y18285162D01*
X10635089Y18285162D02*
X10539851Y18189924D01*
X10539851Y18189924D02*
X10492232Y17999448D01*
X10492232Y17999448D02*
X10492232Y17666115D01*
X10492232Y17666115D02*
X10539851Y17475639D01*
X10539851Y17475639D02*
X10635089Y17380400D01*
X10635089Y17380400D02*
X10730327Y17332781D01*
X10730327Y17332781D02*
X10920803Y17332781D01*
X10920803Y17332781D02*
X11016041Y17380400D01*
X11016041Y17380400D02*
X11111279Y17475639D01*
X11111279Y17475639D02*
X11158898Y17666115D01*
X11158898Y17666115D02*
X11158898Y17999448D01*
X11158898Y17999448D02*
X11111279Y18189924D01*
X11111279Y18189924D02*
X11016041Y18285162D01*
X11016041Y18285162D02*
X10920803Y18332781D01*
X9349374Y17380400D02*
X9206517Y17332781D01*
X9206517Y17332781D02*
X8968422Y17332781D01*
X8968422Y17332781D02*
X8873184Y17380400D01*
X8873184Y17380400D02*
X8825565Y17428020D01*
X8825565Y17428020D02*
X8777946Y17523258D01*
X8777946Y17523258D02*
X8777946Y17618496D01*
X8777946Y17618496D02*
X8825565Y17713734D01*
X8825565Y17713734D02*
X8873184Y17761353D01*
X8873184Y17761353D02*
X8968422Y17808972D01*
X8968422Y17808972D02*
X9158898Y17856591D01*
X9158898Y17856591D02*
X9254136Y17904210D01*
X9254136Y17904210D02*
X9301755Y17951829D01*
X9301755Y17951829D02*
X9349374Y18047067D01*
X9349374Y18047067D02*
X9349374Y18142305D01*
X9349374Y18142305D02*
X9301755Y18237543D01*
X9301755Y18237543D02*
X9254136Y18285162D01*
X9254136Y18285162D02*
X9158898Y18332781D01*
X9158898Y18332781D02*
X8920803Y18332781D01*
X8920803Y18332781D02*
X8777946Y18285162D01*
X8349374Y17332781D02*
X8349374Y18332781D01*
X8349374Y18332781D02*
X8111279Y18332781D01*
X8111279Y18332781D02*
X7968422Y18285162D01*
X7968422Y18285162D02*
X7873184Y18189924D01*
X7873184Y18189924D02*
X7825565Y18094686D01*
X7825565Y18094686D02*
X7777946Y17904210D01*
X7777946Y17904210D02*
X7777946Y17761353D01*
X7777946Y17761353D02*
X7825565Y17570877D01*
X7825565Y17570877D02*
X7873184Y17475639D01*
X7873184Y17475639D02*
X7968422Y17380400D01*
X7968422Y17380400D02*
X8111279Y17332781D01*
X8111279Y17332781D02*
X8349374Y17332781D01*
X6016041Y17428020D02*
X6063660Y17380400D01*
X6063660Y17380400D02*
X6206517Y17332781D01*
X6206517Y17332781D02*
X6301755Y17332781D01*
X6301755Y17332781D02*
X6444612Y17380400D01*
X6444612Y17380400D02*
X6539850Y17475639D01*
X6539850Y17475639D02*
X6587469Y17570877D01*
X6587469Y17570877D02*
X6635088Y17761353D01*
X6635088Y17761353D02*
X6635088Y17904210D01*
X6635088Y17904210D02*
X6587469Y18094686D01*
X6587469Y18094686D02*
X6539850Y18189924D01*
X6539850Y18189924D02*
X6444612Y18285162D01*
X6444612Y18285162D02*
X6301755Y18332781D01*
X6301755Y18332781D02*
X6206517Y18332781D01*
X6206517Y18332781D02*
X6063660Y18285162D01*
X6063660Y18285162D02*
X6016041Y18237543D01*
X5635088Y17618496D02*
X5158898Y17618496D01*
X5730326Y17332781D02*
X5396993Y18332781D01*
X5396993Y18332781D02*
X5063660Y17332781D01*
X4158898Y17332781D02*
X4492231Y17808972D01*
X4730326Y17332781D02*
X4730326Y18332781D01*
X4730326Y18332781D02*
X4349374Y18332781D01*
X4349374Y18332781D02*
X4254136Y18285162D01*
X4254136Y18285162D02*
X4206517Y18237543D01*
X4206517Y18237543D02*
X4158898Y18142305D01*
X4158898Y18142305D02*
X4158898Y17999448D01*
X4158898Y17999448D02*
X4206517Y17904210D01*
X4206517Y17904210D02*
X4254136Y17856591D01*
X4254136Y17856591D02*
X4349374Y17808972D01*
X4349374Y17808972D02*
X4730326Y17808972D01*
X3730326Y17332781D02*
X3730326Y18332781D01*
X3730326Y18332781D02*
X3492231Y18332781D01*
X3492231Y18332781D02*
X3349374Y18285162D01*
X3349374Y18285162D02*
X3254136Y18189924D01*
X3254136Y18189924D02*
X3206517Y18094686D01*
X3206517Y18094686D02*
X3158898Y17904210D01*
X3158898Y17904210D02*
X3158898Y17761353D01*
X3158898Y17761353D02*
X3206517Y17570877D01*
X3206517Y17570877D02*
X3254136Y17475639D01*
X3254136Y17475639D02*
X3349374Y17380400D01*
X3349374Y17380400D02*
X3492231Y17332781D01*
X3492231Y17332781D02*
X3730326Y17332781D01*
X83311279Y9557258D02*
X83882707Y9557258D01*
X83882707Y9557258D02*
X83882707Y10757258D01*
X82911278Y9557258D02*
X82911278Y10757258D01*
X82339849Y9557258D02*
X82339849Y10757258D01*
X82339849Y10757258D02*
X81939849Y9900115D01*
X81939849Y9900115D02*
X81539849Y10757258D01*
X81539849Y10757258D02*
X81539849Y9557258D01*
X80968420Y9557258D02*
X80968420Y10757258D01*
X80568420Y10757258D02*
X79882706Y10757258D01*
X80225563Y9557258D02*
X80225563Y10757258D01*
X78625562Y9614400D02*
X78454134Y9557258D01*
X78454134Y9557258D02*
X78168419Y9557258D01*
X78168419Y9557258D02*
X78054134Y9614400D01*
X78054134Y9614400D02*
X77996991Y9671543D01*
X77996991Y9671543D02*
X77939848Y9785829D01*
X77939848Y9785829D02*
X77939848Y9900115D01*
X77939848Y9900115D02*
X77996991Y10014400D01*
X77996991Y10014400D02*
X78054134Y10071543D01*
X78054134Y10071543D02*
X78168419Y10128686D01*
X78168419Y10128686D02*
X78396991Y10185829D01*
X78396991Y10185829D02*
X78511276Y10242972D01*
X78511276Y10242972D02*
X78568419Y10300115D01*
X78568419Y10300115D02*
X78625562Y10414400D01*
X78625562Y10414400D02*
X78625562Y10528686D01*
X78625562Y10528686D02*
X78568419Y10642972D01*
X78568419Y10642972D02*
X78511276Y10700115D01*
X78511276Y10700115D02*
X78396991Y10757258D01*
X78396991Y10757258D02*
X78111276Y10757258D01*
X78111276Y10757258D02*
X77939848Y10700115D01*
X77539848Y10757258D02*
X77254134Y9557258D01*
X77254134Y9557258D02*
X77025562Y10414400D01*
X77025562Y10414400D02*
X76796991Y9557258D01*
X76796991Y9557258D02*
X76511277Y10757258D01*
X76054133Y9557258D02*
X76054133Y10757258D01*
X75654133Y10757258D02*
X74968419Y10757258D01*
X75311276Y9557258D02*
X75311276Y10757258D01*
X73882704Y9671543D02*
X73939847Y9614400D01*
X73939847Y9614400D02*
X74111275Y9557258D01*
X74111275Y9557258D02*
X74225561Y9557258D01*
X74225561Y9557258D02*
X74396990Y9614400D01*
X74396990Y9614400D02*
X74511275Y9728686D01*
X74511275Y9728686D02*
X74568418Y9842972D01*
X74568418Y9842972D02*
X74625561Y10071543D01*
X74625561Y10071543D02*
X74625561Y10242972D01*
X74625561Y10242972D02*
X74568418Y10471543D01*
X74568418Y10471543D02*
X74511275Y10585829D01*
X74511275Y10585829D02*
X74396990Y10700115D01*
X74396990Y10700115D02*
X74225561Y10757258D01*
X74225561Y10757258D02*
X74111275Y10757258D01*
X74111275Y10757258D02*
X73939847Y10700115D01*
X73939847Y10700115D02*
X73882704Y10642972D01*
X73368418Y9557258D02*
X73368418Y10757258D01*
X73368418Y10185829D02*
X72682704Y10185829D01*
X72682704Y9557258D02*
X72682704Y10757258D01*
X71196989Y9557258D02*
X71196989Y10757258D01*
X71196989Y10757258D02*
X70739846Y10757258D01*
X70739846Y10757258D02*
X70625561Y10700115D01*
X70625561Y10700115D02*
X70568418Y10642972D01*
X70568418Y10642972D02*
X70511275Y10528686D01*
X70511275Y10528686D02*
X70511275Y10357258D01*
X70511275Y10357258D02*
X70568418Y10242972D01*
X70568418Y10242972D02*
X70625561Y10185829D01*
X70625561Y10185829D02*
X70739846Y10128686D01*
X70739846Y10128686D02*
X71196989Y10128686D01*
X69311275Y9557258D02*
X69711275Y10128686D01*
X69996989Y9557258D02*
X69996989Y10757258D01*
X69996989Y10757258D02*
X69539846Y10757258D01*
X69539846Y10757258D02*
X69425561Y10700115D01*
X69425561Y10700115D02*
X69368418Y10642972D01*
X69368418Y10642972D02*
X69311275Y10528686D01*
X69311275Y10528686D02*
X69311275Y10357258D01*
X69311275Y10357258D02*
X69368418Y10242972D01*
X69368418Y10242972D02*
X69425561Y10185829D01*
X69425561Y10185829D02*
X69539846Y10128686D01*
X69539846Y10128686D02*
X69996989Y10128686D01*
X68568418Y10757258D02*
X68339846Y10757258D01*
X68339846Y10757258D02*
X68225561Y10700115D01*
X68225561Y10700115D02*
X68111275Y10585829D01*
X68111275Y10585829D02*
X68054132Y10357258D01*
X68054132Y10357258D02*
X68054132Y9957258D01*
X68054132Y9957258D02*
X68111275Y9728686D01*
X68111275Y9728686D02*
X68225561Y9614400D01*
X68225561Y9614400D02*
X68339846Y9557258D01*
X68339846Y9557258D02*
X68568418Y9557258D01*
X68568418Y9557258D02*
X68682704Y9614400D01*
X68682704Y9614400D02*
X68796989Y9728686D01*
X68796989Y9728686D02*
X68854132Y9957258D01*
X68854132Y9957258D02*
X68854132Y10357258D01*
X68854132Y10357258D02*
X68796989Y10585829D01*
X68796989Y10585829D02*
X68682704Y10700115D01*
X68682704Y10700115D02*
X68568418Y10757258D01*
X67139846Y10185829D02*
X66968418Y10128686D01*
X66968418Y10128686D02*
X66911275Y10071543D01*
X66911275Y10071543D02*
X66854132Y9957258D01*
X66854132Y9957258D02*
X66854132Y9785829D01*
X66854132Y9785829D02*
X66911275Y9671543D01*
X66911275Y9671543D02*
X66968418Y9614400D01*
X66968418Y9614400D02*
X67082703Y9557258D01*
X67082703Y9557258D02*
X67539846Y9557258D01*
X67539846Y9557258D02*
X67539846Y10757258D01*
X67539846Y10757258D02*
X67139846Y10757258D01*
X67139846Y10757258D02*
X67025561Y10700115D01*
X67025561Y10700115D02*
X66968418Y10642972D01*
X66968418Y10642972D02*
X66911275Y10528686D01*
X66911275Y10528686D02*
X66911275Y10414400D01*
X66911275Y10414400D02*
X66968418Y10300115D01*
X66968418Y10300115D02*
X67025561Y10242972D01*
X67025561Y10242972D02*
X67139846Y10185829D01*
X67139846Y10185829D02*
X67539846Y10185829D01*
X66339846Y10185829D02*
X65939846Y10185829D01*
X65768418Y9557258D02*
X66339846Y9557258D01*
X66339846Y9557258D02*
X66339846Y10757258D01*
X66339846Y10757258D02*
X65768418Y10757258D01*
X65311275Y9614400D02*
X65139847Y9557258D01*
X65139847Y9557258D02*
X64854132Y9557258D01*
X64854132Y9557258D02*
X64739847Y9614400D01*
X64739847Y9614400D02*
X64682704Y9671543D01*
X64682704Y9671543D02*
X64625561Y9785829D01*
X64625561Y9785829D02*
X64625561Y9900115D01*
X64625561Y9900115D02*
X64682704Y10014400D01*
X64682704Y10014400D02*
X64739847Y10071543D01*
X64739847Y10071543D02*
X64854132Y10128686D01*
X64854132Y10128686D02*
X65082704Y10185829D01*
X65082704Y10185829D02*
X65196989Y10242972D01*
X65196989Y10242972D02*
X65254132Y10300115D01*
X65254132Y10300115D02*
X65311275Y10414400D01*
X65311275Y10414400D02*
X65311275Y10528686D01*
X65311275Y10528686D02*
X65254132Y10642972D01*
X65254132Y10642972D02*
X65196989Y10700115D01*
X65196989Y10700115D02*
X65082704Y10757258D01*
X65082704Y10757258D02*
X64796989Y10757258D01*
X64796989Y10757258D02*
X64625561Y10700115D01*
X63196989Y9557258D02*
X63196989Y10757258D01*
X62625560Y9557258D02*
X62625560Y10757258D01*
X62625560Y10757258D02*
X61939846Y9557258D01*
X61939846Y9557258D02*
X61939846Y10757258D01*
X97030326Y632781D02*
X97030326Y1632781D01*
X97030326Y1632781D02*
X96649374Y1632781D01*
X96649374Y1632781D02*
X96554136Y1585162D01*
X96554136Y1585162D02*
X96506517Y1537543D01*
X96506517Y1537543D02*
X96458898Y1442305D01*
X96458898Y1442305D02*
X96458898Y1299448D01*
X96458898Y1299448D02*
X96506517Y1204210D01*
X96506517Y1204210D02*
X96554136Y1156591D01*
X96554136Y1156591D02*
X96649374Y1108972D01*
X96649374Y1108972D02*
X97030326Y1108972D01*
X95458898Y632781D02*
X95792231Y1108972D01*
X96030326Y632781D02*
X96030326Y1632781D01*
X96030326Y1632781D02*
X95649374Y1632781D01*
X95649374Y1632781D02*
X95554136Y1585162D01*
X95554136Y1585162D02*
X95506517Y1537543D01*
X95506517Y1537543D02*
X95458898Y1442305D01*
X95458898Y1442305D02*
X95458898Y1299448D01*
X95458898Y1299448D02*
X95506517Y1204210D01*
X95506517Y1204210D02*
X95554136Y1156591D01*
X95554136Y1156591D02*
X95649374Y1108972D01*
X95649374Y1108972D02*
X96030326Y1108972D01*
X94839850Y1632781D02*
X94649374Y1632781D01*
X94649374Y1632781D02*
X94554136Y1585162D01*
X94554136Y1585162D02*
X94458898Y1489924D01*
X94458898Y1489924D02*
X94411279Y1299448D01*
X94411279Y1299448D02*
X94411279Y966115D01*
X94411279Y966115D02*
X94458898Y775639D01*
X94458898Y775639D02*
X94554136Y680400D01*
X94554136Y680400D02*
X94649374Y632781D01*
X94649374Y632781D02*
X94839850Y632781D01*
X94839850Y632781D02*
X94935088Y680400D01*
X94935088Y680400D02*
X95030326Y775639D01*
X95030326Y775639D02*
X95077945Y966115D01*
X95077945Y966115D02*
X95077945Y1299448D01*
X95077945Y1299448D02*
X95030326Y1489924D01*
X95030326Y1489924D02*
X94935088Y1585162D01*
X94935088Y1585162D02*
X94839850Y1632781D01*
X93649374Y1156591D02*
X93506517Y1108972D01*
X93506517Y1108972D02*
X93458898Y1061353D01*
X93458898Y1061353D02*
X93411279Y966115D01*
X93411279Y966115D02*
X93411279Y823258D01*
X93411279Y823258D02*
X93458898Y728020D01*
X93458898Y728020D02*
X93506517Y680400D01*
X93506517Y680400D02*
X93601755Y632781D01*
X93601755Y632781D02*
X93982707Y632781D01*
X93982707Y632781D02*
X93982707Y1632781D01*
X93982707Y1632781D02*
X93649374Y1632781D01*
X93649374Y1632781D02*
X93554136Y1585162D01*
X93554136Y1585162D02*
X93506517Y1537543D01*
X93506517Y1537543D02*
X93458898Y1442305D01*
X93458898Y1442305D02*
X93458898Y1347067D01*
X93458898Y1347067D02*
X93506517Y1251829D01*
X93506517Y1251829D02*
X93554136Y1204210D01*
X93554136Y1204210D02*
X93649374Y1156591D01*
X93649374Y1156591D02*
X93982707Y1156591D01*
X92982707Y1156591D02*
X92649374Y1156591D01*
X92506517Y632781D02*
X92982707Y632781D01*
X92982707Y632781D02*
X92982707Y1632781D01*
X92982707Y1632781D02*
X92506517Y1632781D01*
X75430326Y54432781D02*
X75430326Y55432781D01*
X75430326Y55432781D02*
X75096993Y54718496D01*
X75096993Y54718496D02*
X74763660Y55432781D01*
X74763660Y55432781D02*
X74763660Y54432781D01*
X74096993Y55432781D02*
X73906517Y55432781D01*
X73906517Y55432781D02*
X73811279Y55385162D01*
X73811279Y55385162D02*
X73716041Y55289924D01*
X73716041Y55289924D02*
X73668422Y55099448D01*
X73668422Y55099448D02*
X73668422Y54766115D01*
X73668422Y54766115D02*
X73716041Y54575639D01*
X73716041Y54575639D02*
X73811279Y54480400D01*
X73811279Y54480400D02*
X73906517Y54432781D01*
X73906517Y54432781D02*
X74096993Y54432781D01*
X74096993Y54432781D02*
X74192231Y54480400D01*
X74192231Y54480400D02*
X74287469Y54575639D01*
X74287469Y54575639D02*
X74335088Y54766115D01*
X74335088Y54766115D02*
X74335088Y55099448D01*
X74335088Y55099448D02*
X74287469Y55289924D01*
X74287469Y55289924D02*
X74192231Y55385162D01*
X74192231Y55385162D02*
X74096993Y55432781D01*
X73382707Y55432781D02*
X72811279Y55432781D01*
X73096993Y54432781D02*
X73096993Y55432781D01*
X72287469Y55432781D02*
X72096993Y55432781D01*
X72096993Y55432781D02*
X72001755Y55385162D01*
X72001755Y55385162D02*
X71906517Y55289924D01*
X71906517Y55289924D02*
X71858898Y55099448D01*
X71858898Y55099448D02*
X71858898Y54766115D01*
X71858898Y54766115D02*
X71906517Y54575639D01*
X71906517Y54575639D02*
X72001755Y54480400D01*
X72001755Y54480400D02*
X72096993Y54432781D01*
X72096993Y54432781D02*
X72287469Y54432781D01*
X72287469Y54432781D02*
X72382707Y54480400D01*
X72382707Y54480400D02*
X72477945Y54575639D01*
X72477945Y54575639D02*
X72525564Y54766115D01*
X72525564Y54766115D02*
X72525564Y55099448D01*
X72525564Y55099448D02*
X72477945Y55289924D01*
X72477945Y55289924D02*
X72382707Y55385162D01*
X72382707Y55385162D02*
X72287469Y55432781D01*
X70858898Y54432781D02*
X71192231Y54908972D01*
X71430326Y54432781D02*
X71430326Y55432781D01*
X71430326Y55432781D02*
X71049374Y55432781D01*
X71049374Y55432781D02*
X70954136Y55385162D01*
X70954136Y55385162D02*
X70906517Y55337543D01*
X70906517Y55337543D02*
X70858898Y55242305D01*
X70858898Y55242305D02*
X70858898Y55099448D01*
X70858898Y55099448D02*
X70906517Y55004210D01*
X70906517Y55004210D02*
X70954136Y54956591D01*
X70954136Y54956591D02*
X71049374Y54908972D01*
X71049374Y54908972D02*
X71430326Y54908972D01*
X70668422Y54337543D02*
X69906517Y54337543D01*
X69477945Y54908972D02*
X69477945Y54432781D01*
X69811278Y55432781D02*
X69477945Y54908972D01*
X69477945Y54908972D02*
X69144612Y55432781D01*
X27330326Y1456591D02*
X26996993Y1456591D01*
X26854136Y932781D02*
X27330326Y932781D01*
X27330326Y932781D02*
X27330326Y1932781D01*
X27330326Y1932781D02*
X26854136Y1932781D01*
X26425564Y932781D02*
X26425564Y1932781D01*
X26425564Y1932781D02*
X26092231Y1218496D01*
X26092231Y1218496D02*
X25758898Y1932781D01*
X25758898Y1932781D02*
X25758898Y932781D01*
X25282707Y1028020D02*
X25235088Y980400D01*
X25235088Y980400D02*
X25282707Y932781D01*
X25282707Y932781D02*
X25330326Y980400D01*
X25330326Y980400D02*
X25282707Y1028020D01*
X25282707Y1028020D02*
X25282707Y932781D01*
X24854136Y980400D02*
X24711279Y932781D01*
X24711279Y932781D02*
X24473184Y932781D01*
X24473184Y932781D02*
X24377946Y980400D01*
X24377946Y980400D02*
X24330327Y1028020D01*
X24330327Y1028020D02*
X24282708Y1123258D01*
X24282708Y1123258D02*
X24282708Y1218496D01*
X24282708Y1218496D02*
X24330327Y1313734D01*
X24330327Y1313734D02*
X24377946Y1361353D01*
X24377946Y1361353D02*
X24473184Y1408972D01*
X24473184Y1408972D02*
X24663660Y1456591D01*
X24663660Y1456591D02*
X24758898Y1504210D01*
X24758898Y1504210D02*
X24806517Y1551829D01*
X24806517Y1551829D02*
X24854136Y1647067D01*
X24854136Y1647067D02*
X24854136Y1742305D01*
X24854136Y1742305D02*
X24806517Y1837543D01*
X24806517Y1837543D02*
X24758898Y1885162D01*
X24758898Y1885162D02*
X24663660Y1932781D01*
X24663660Y1932781D02*
X24425565Y1932781D01*
X24425565Y1932781D02*
X24282708Y1885162D01*
X23996993Y1932781D02*
X23425565Y1932781D01*
X23711279Y932781D02*
X23711279Y1932781D01*
X22901755Y1932781D02*
X22711279Y1932781D01*
X22711279Y1932781D02*
X22616041Y1885162D01*
X22616041Y1885162D02*
X22520803Y1789924D01*
X22520803Y1789924D02*
X22473184Y1599448D01*
X22473184Y1599448D02*
X22473184Y1266115D01*
X22473184Y1266115D02*
X22520803Y1075639D01*
X22520803Y1075639D02*
X22616041Y980400D01*
X22616041Y980400D02*
X22711279Y932781D01*
X22711279Y932781D02*
X22901755Y932781D01*
X22901755Y932781D02*
X22996993Y980400D01*
X22996993Y980400D02*
X23092231Y1075639D01*
X23092231Y1075639D02*
X23139850Y1266115D01*
X23139850Y1266115D02*
X23139850Y1599448D01*
X23139850Y1599448D02*
X23092231Y1789924D01*
X23092231Y1789924D02*
X22996993Y1885162D01*
X22996993Y1885162D02*
X22901755Y1932781D01*
X22044612Y932781D02*
X22044612Y1932781D01*
X22044612Y1932781D02*
X21663660Y1932781D01*
X21663660Y1932781D02*
X21568422Y1885162D01*
X21568422Y1885162D02*
X21520803Y1837543D01*
X21520803Y1837543D02*
X21473184Y1742305D01*
X21473184Y1742305D02*
X21473184Y1599448D01*
X21473184Y1599448D02*
X21520803Y1504210D01*
X21520803Y1504210D02*
X21568422Y1456591D01*
X21568422Y1456591D02*
X21663660Y1408972D01*
X21663660Y1408972D02*
X22044612Y1408972D01*
X17409523Y32547781D02*
X17409523Y31833496D01*
X17409523Y31833496D02*
X17457142Y31690639D01*
X17457142Y31690639D02*
X17552380Y31595400D01*
X17552380Y31595400D02*
X17695237Y31547781D01*
X17695237Y31547781D02*
X17790475Y31547781D01*
X16980951Y32452543D02*
X16933332Y32500162D01*
X16933332Y32500162D02*
X16838094Y32547781D01*
X16838094Y32547781D02*
X16599999Y32547781D01*
X16599999Y32547781D02*
X16504761Y32500162D01*
X16504761Y32500162D02*
X16457142Y32452543D01*
X16457142Y32452543D02*
X16409523Y32357305D01*
X16409523Y32357305D02*
X16409523Y32262067D01*
X16409523Y32262067D02*
X16457142Y32119210D01*
X16457142Y32119210D02*
X17028570Y31547781D01*
X17028570Y31547781D02*
X16409523Y31547781D01*
X15790475Y32547781D02*
X15695237Y32547781D01*
X15695237Y32547781D02*
X15599999Y32500162D01*
X15599999Y32500162D02*
X15552380Y32452543D01*
X15552380Y32452543D02*
X15504761Y32357305D01*
X15504761Y32357305D02*
X15457142Y32166829D01*
X15457142Y32166829D02*
X15457142Y31928734D01*
X15457142Y31928734D02*
X15504761Y31738258D01*
X15504761Y31738258D02*
X15552380Y31643020D01*
X15552380Y31643020D02*
X15599999Y31595400D01*
X15599999Y31595400D02*
X15695237Y31547781D01*
X15695237Y31547781D02*
X15790475Y31547781D01*
X15790475Y31547781D02*
X15885713Y31595400D01*
X15885713Y31595400D02*
X15933332Y31643020D01*
X15933332Y31643020D02*
X15980951Y31738258D01*
X15980951Y31738258D02*
X16028570Y31928734D01*
X16028570Y31928734D02*
X16028570Y32166829D01*
X16028570Y32166829D02*
X15980951Y32357305D01*
X15980951Y32357305D02*
X15933332Y32452543D01*
X15933332Y32452543D02*
X15885713Y32500162D01*
X15885713Y32500162D02*
X15790475Y32547781D01*
%TO.C,J20*%
X-2300000Y22100000D02*
X-2300000Y31300000D01*
X-200000Y32000000D02*
X-1600000Y32000000D01*
X100000Y31600000D02*
X100000Y35000000D01*
X500000Y21400000D02*
X-1600000Y21400000D01*
X800000Y29699380D02*
X100000Y31600000D01*
X800000Y20200000D02*
X800000Y29699380D01*
X800000Y20200000D02*
X3100000Y20200000D01*
X3100000Y35000000D02*
X100000Y35000000D01*
X13300000Y35000000D02*
X5900000Y35000000D01*
X13300000Y20200000D02*
X5900000Y20200000D01*
X14900000Y30300000D02*
X14900000Y33500000D01*
X-2300000Y31300000D02*
G75*
G02*
X-1600000Y32000000I700000J0D01*
G01*
X-1600000Y21400000D02*
G75*
G02*
X-2300000Y22100000I-1J699999D01*
G01*
%TD*%
M02*
