%TF.GenerationSoftware,KiCad,Pcbnew,9.0.1-9.0.1-0~ubuntu24.04.1*%
%TF.CreationDate,2025-04-30T23:19:22+03:00*%
%TF.ProjectId,HYB_ESPA,4859425f-4553-4504-912e-6b696361645f,V_0.1b*%
%TF.SameCoordinates,PX5f5e100PY5f5e100*%
%TF.FileFunction,Soldermask,Top*%
%TF.FilePolarity,Negative*%
%FSLAX46Y46*%
G04 Gerber Fmt 4.6, Leading zero omitted, Abs format (unit mm)*
G04 Created by KiCad (PCBNEW 9.0.1-9.0.1-0~ubuntu24.04.1) date 2025-04-30 23:19:22*
%MOMM*%
%LPD*%
G01*
G04 APERTURE LIST*
G04 Aperture macros list*
%AMRoundRect*
0 Rectangle with rounded corners*
0 $1 Rounding radius*
0 $2 $3 $4 $5 $6 $7 $8 $9 X,Y pos of 4 corners*
0 Add a 4 corners polygon primitive as box body*
4,1,4,$2,$3,$4,$5,$6,$7,$8,$9,$2,$3,0*
0 Add four circle primitives for the rounded corners*
1,1,$1+$1,$2,$3*
1,1,$1+$1,$4,$5*
1,1,$1+$1,$6,$7*
1,1,$1+$1,$8,$9*
0 Add four rect primitives between the rounded corners*
20,1,$1+$1,$2,$3,$4,$5,0*
20,1,$1+$1,$4,$5,$6,$7,0*
20,1,$1+$1,$6,$7,$8,$9,0*
20,1,$1+$1,$8,$9,$2,$3,0*%
G04 Aperture macros list end*
%ADD10RoundRect,0.200000X-0.275000X0.200000X-0.275000X-0.200000X0.275000X-0.200000X0.275000X0.200000X0*%
%ADD11RoundRect,0.200000X0.200000X0.500000X-0.200000X0.500000X-0.200000X-0.500000X0.200000X-0.500000X0*%
%ADD12RoundRect,0.150000X0.150000X-0.512500X0.150000X0.512500X-0.150000X0.512500X-0.150000X-0.512500X0*%
%ADD13RoundRect,0.249999X-0.790001X-1.550001X0.790001X-1.550001X0.790001X1.550001X-0.790001X1.550001X0*%
%ADD14O,2.080000X3.600000*%
%ADD15RoundRect,0.200000X-0.200000X-0.275000X0.200000X-0.275000X0.200000X0.275000X-0.200000X0.275000X0*%
%ADD16RoundRect,0.225000X0.250000X-0.225000X0.250000X0.225000X-0.250000X0.225000X-0.250000X-0.225000X0*%
%ADD17RoundRect,0.250000X0.725000X-0.600000X0.725000X0.600000X-0.725000X0.600000X-0.725000X-0.600000X0*%
%ADD18O,1.950000X1.700000*%
%ADD19RoundRect,0.200000X0.275000X-0.200000X0.275000X0.200000X-0.275000X0.200000X-0.275000X-0.200000X0*%
%ADD20RoundRect,0.200000X0.200000X0.550060X-0.200000X0.550060X-0.200000X-0.550060X0.200000X-0.550060X0*%
%ADD21RoundRect,0.200000X-0.550060X0.200000X-0.550060X-0.200000X0.550060X-0.200000X0.550060X0.200000X0*%
%ADD22RoundRect,0.599999X2.399996X2.399996X-2.399996X2.399996X-2.399996X-2.399996X2.399996X-2.399996X0*%
%ADD23C,0.500000*%
%ADD24RoundRect,0.112500X-0.537500X0.112500X-0.537500X-0.112500X0.537500X-0.112500X0.537500X0.112500X0*%
%ADD25R,1.300000X0.240000*%
%ADD26O,2.100000X1.700000*%
%ADD27O,2.100000X2.000000*%
%ADD28R,2.000000X1.700000*%
%ADD29O,2.000000X1.700000*%
%ADD30R,0.500000X0.800000*%
%ADD31R,0.400000X0.800000*%
%ADD32R,1.600000X1.600000*%
%ADD33C,1.600000*%
%ADD34R,1.700000X2.000000*%
%ADD35O,1.700000X2.000000*%
%ADD36RoundRect,0.250000X0.600000X0.750000X-0.600000X0.750000X-0.600000X-0.750000X0.600000X-0.750000X0*%
%ADD37RoundRect,0.137500X0.137500X-0.525000X0.137500X0.525000X-0.137500X0.525000X-0.137500X-0.525000X0*%
%ADD38RoundRect,0.200000X0.500000X-0.200000X0.500000X0.200000X-0.500000X0.200000X-0.500000X-0.200000X0*%
%ADD39RoundRect,0.150000X0.350000X0.150000X-0.350000X0.150000X-0.350000X-0.150000X0.350000X-0.150000X0*%
%ADD40O,1.600000X1.600000*%
%ADD41C,4.000000*%
%ADD42RoundRect,0.225000X-0.250000X0.225000X-0.250000X-0.225000X0.250000X-0.225000X0.250000X0.225000X0*%
%ADD43RoundRect,0.200000X0.200000X0.275000X-0.200000X0.275000X-0.200000X-0.275000X0.200000X-0.275000X0*%
%ADD44RoundRect,0.340910X0.409090X-1.409090X0.409090X1.409090X-0.409090X1.409090X-0.409090X-1.409090X0*%
%ADD45RoundRect,0.186172X4.813828X-3.313828X4.813828X3.313828X-4.813828X3.313828X-4.813828X-3.313828X0*%
%ADD46RoundRect,0.200000X-0.335876X-0.053033X-0.053033X-0.335876X0.335876X0.053033X0.053033X0.335876X0*%
%ADD47RoundRect,0.250000X-0.600000X-0.725000X0.600000X-0.725000X0.600000X0.725000X-0.600000X0.725000X0*%
%ADD48O,1.700000X1.950000*%
%ADD49RoundRect,0.250000X-0.250000X-0.250000X0.250000X-0.250000X0.250000X0.250000X-0.250000X0.250000X0*%
%ADD50R,5.700000X1.800000*%
%ADD51RoundRect,0.250000X0.600000X0.725000X-0.600000X0.725000X-0.600000X-0.725000X0.600000X-0.725000X0*%
%ADD52RoundRect,0.243750X0.243750X0.456250X-0.243750X0.456250X-0.243750X-0.456250X0.243750X-0.456250X0*%
%ADD53RoundRect,0.060000X-0.060000X0.590000X-0.060000X-0.590000X0.060000X-0.590000X0.060000X0.590000X0*%
%ADD54RoundRect,0.340910X-0.409090X1.409090X-0.409090X-1.409090X0.409090X-1.409090X0.409090X1.409090X0*%
%ADD55RoundRect,0.186172X-4.813828X3.313828X-4.813828X-3.313828X4.813828X-3.313828X4.813828X3.313828X0*%
%ADD56RoundRect,0.225000X-0.225000X-0.250000X0.225000X-0.250000X0.225000X0.250000X-0.225000X0.250000X0*%
%ADD57RoundRect,0.250001X-0.949999X-0.949999X0.949999X-0.949999X0.949999X0.949999X-0.949999X0.949999X0*%
%ADD58C,2.400000*%
%ADD59C,1.750000*%
%ADD60C,2.100000*%
%ADD61RoundRect,0.150000X0.512500X0.150000X-0.512500X0.150000X-0.512500X-0.150000X0.512500X-0.150000X0*%
%ADD62RoundRect,0.200000X-0.200000X-0.500000X0.200000X-0.500000X0.200000X0.500000X-0.200000X0.500000X0*%
%ADD63RoundRect,0.137500X0.525000X0.137500X-0.525000X0.137500X-0.525000X-0.137500X0.525000X-0.137500X0*%
%ADD64RoundRect,0.150000X-0.350000X-0.150000X0.350000X-0.150000X0.350000X0.150000X-0.350000X0.150000X0*%
%ADD65RoundRect,0.195652X0.704348X0.954348X-0.704348X0.954348X-0.704348X-0.954348X0.704348X-0.954348X0*%
%ADD66O,1.000000X1.000000*%
%ADD67C,1.000000*%
G04 APERTURE END LIST*
D10*
%TO.C,R38*%
X91700000Y13525000D03*
X91700000Y11875000D03*
%TD*%
D11*
%TO.C,D2*%
X58800000Y21300000D03*
X56800000Y21300000D03*
%TD*%
D12*
%TO.C,U11*%
X86950000Y33362500D03*
X87900000Y33362500D03*
X88850000Y33362500D03*
X88850000Y35637500D03*
X87900000Y35637500D03*
X86950000Y35637500D03*
%TD*%
D10*
%TO.C,R37*%
X75000000Y18225000D03*
X75000000Y16575000D03*
%TD*%
D13*
%TO.C,J21*%
X8800000Y4600000D03*
D14*
X13880000Y4600000D03*
%TD*%
D15*
%TO.C,R23*%
X49975000Y33000000D03*
X51625000Y33000000D03*
%TD*%
D16*
%TO.C,C7*%
X53700000Y16625000D03*
X53700000Y18175000D03*
%TD*%
D17*
%TO.C,J26*%
X65401242Y3000000D03*
D18*
X65401242Y5500000D03*
X65401242Y8000000D03*
%TD*%
D19*
%TO.C,F4*%
X97300000Y12300000D03*
X97300000Y13900000D03*
%TD*%
D10*
%TO.C,F3*%
X95600000Y13900000D03*
X95600000Y12300000D03*
%TD*%
D20*
%TO.C,U7*%
X853012Y17651761D03*
X2123012Y17651761D03*
X3393012Y17651761D03*
X4663012Y17651761D03*
X5933012Y17651761D03*
X7203012Y17651761D03*
X8473012Y17651761D03*
X9743012Y17651761D03*
X11013012Y17651761D03*
X12283012Y17651761D03*
X13553012Y17651761D03*
X14823012Y17651761D03*
X16093012Y17651761D03*
X17363012Y17651761D03*
D21*
X18853012Y20936761D03*
X18853012Y22206761D03*
X18853012Y31096761D03*
X18853012Y32366761D03*
D20*
X17363012Y35651761D03*
X16093012Y35651761D03*
X14823012Y35651761D03*
X13553012Y35651761D03*
X12283012Y35651761D03*
X11013012Y35651761D03*
X9743012Y35651761D03*
X7203012Y35651761D03*
X5933012Y35651761D03*
X4663012Y35651761D03*
X3393012Y35651761D03*
X2123012Y35651761D03*
X853012Y35651761D03*
D22*
X8193012Y25721761D03*
%TD*%
D23*
%TO.C,J2*%
X6215000Y55490000D03*
X6215000Y49710000D03*
D24*
X7510000Y55800000D03*
X7510000Y55000000D03*
D25*
X7510000Y53850000D03*
X7510000Y52850000D03*
X7510000Y52350000D03*
X7510000Y51350000D03*
D24*
X7510000Y50200000D03*
X7510000Y49400000D03*
X7510000Y49400000D03*
X7510000Y50200000D03*
D25*
X7510000Y50850000D03*
X7510000Y51850000D03*
X7510000Y53350000D03*
X7510000Y54350000D03*
D24*
X7510000Y55000000D03*
X7510000Y55800000D03*
D26*
X6815000Y57250000D03*
D27*
X2635000Y57070000D03*
X2635000Y48130000D03*
D26*
X6815000Y47950000D03*
%TD*%
D28*
%TO.C,J5*%
X32600000Y48700000D03*
D29*
X32600000Y46160000D03*
%TD*%
D30*
%TO.C,RN2*%
X77800000Y12700000D03*
X77800000Y14500000D03*
D31*
X78600000Y12700000D03*
X78600000Y14500000D03*
X79400000Y12700000D03*
X79400000Y14500000D03*
D30*
X80200000Y12700000D03*
X80200000Y14500000D03*
%TD*%
D19*
%TO.C,R13*%
X87100000Y47075000D03*
X87100000Y48725000D03*
%TD*%
D32*
%TO.C,C3*%
X19000000Y47000000D03*
D33*
X19000000Y44500000D03*
%TD*%
D10*
%TO.C,R20*%
X55300000Y18225000D03*
X55300000Y16575000D03*
%TD*%
D15*
%TO.C,R19*%
X19175000Y12400000D03*
X20825000Y12400000D03*
%TD*%
D34*
%TO.C,J31*%
X94425000Y41500000D03*
D35*
X96965000Y41500000D03*
%TD*%
D19*
%TO.C,R17*%
X92400000Y47100000D03*
X92400000Y48750000D03*
%TD*%
D10*
%TO.C,R24*%
X50274590Y18200494D03*
X50274590Y16550494D03*
%TD*%
D19*
%TO.C,R12*%
X71200000Y47075000D03*
X71200000Y48725000D03*
%TD*%
D15*
%TO.C,R34*%
X81675000Y12600000D03*
X83325000Y12600000D03*
%TD*%
D19*
%TO.C,R36*%
X89100000Y20475000D03*
X89100000Y22125000D03*
%TD*%
D36*
%TO.C,J18*%
X97000000Y26010690D03*
D35*
X94500000Y26010690D03*
%TD*%
D19*
%TO.C,R6*%
X27900000Y47075000D03*
X27900000Y48725000D03*
%TD*%
D16*
%TO.C,C9*%
X64900000Y16625000D03*
X64900000Y18175000D03*
%TD*%
D37*
%TO.C,U10*%
X76150000Y24162500D03*
X77100000Y24162500D03*
X78050000Y24162500D03*
X78050000Y26437500D03*
X77100000Y26437500D03*
X76150000Y26437500D03*
%TD*%
D28*
%TO.C,J12*%
X77800000Y48700000D03*
D29*
X77800000Y46160000D03*
%TD*%
D38*
%TO.C,D6*%
X90700000Y20100000D03*
X90700000Y22100000D03*
%TD*%
D19*
%TO.C,R7*%
X29700000Y47075000D03*
X29700000Y48725000D03*
%TD*%
D39*
%TO.C,Q5*%
X55793717Y12650000D03*
X55793717Y14550000D03*
X53518717Y13600000D03*
%TD*%
%TO.C,Q6*%
X52393717Y12650000D03*
X52393717Y14550000D03*
X50118717Y13600000D03*
%TD*%
D34*
%TO.C,U5*%
X60100000Y38600000D03*
D35*
X62640000Y38600000D03*
X65180000Y38600000D03*
X67720000Y38600000D03*
X70260000Y38600000D03*
X72800000Y38600000D03*
X75340000Y38600000D03*
D40*
X77880000Y38600000D03*
D35*
X77880000Y51300000D03*
X75340000Y51300000D03*
X72800000Y51300000D03*
X70260000Y51300000D03*
X67720000Y51300000D03*
X65180000Y51300000D03*
X62640000Y51300000D03*
X60100000Y51300000D03*
%TD*%
D41*
%TO.C,H2*%
X37600000Y56200000D03*
%TD*%
D42*
%TO.C,C20*%
X73238361Y32975000D03*
X73238361Y31425000D03*
%TD*%
D43*
%TO.C,C2*%
X19125000Y55700000D03*
X17475000Y55700000D03*
%TD*%
D34*
%TO.C,U3*%
X17800000Y38600000D03*
D35*
X20340000Y38600000D03*
X22880000Y38600000D03*
X25420000Y38600000D03*
X27960000Y38600000D03*
X30500000Y38600000D03*
X33040000Y38600000D03*
D40*
X35580000Y38600000D03*
D35*
X35580000Y51300000D03*
X33040000Y51300000D03*
X30500000Y51300000D03*
X27960000Y51300000D03*
X25420000Y51300000D03*
X22880000Y51300000D03*
X20340000Y51300000D03*
X17800000Y51300000D03*
%TD*%
D16*
%TO.C,C19*%
X90200000Y11925000D03*
X90200000Y13475000D03*
%TD*%
D34*
%TO.C,U6*%
X81020000Y38600000D03*
D35*
X83560000Y38600000D03*
X86100000Y38600000D03*
X88640000Y38600000D03*
X91180000Y38600000D03*
X93720000Y38600000D03*
X96260000Y38600000D03*
D40*
X98800000Y38600000D03*
D35*
X98800000Y51300000D03*
X96260000Y51300000D03*
X93720000Y51300000D03*
X91180000Y51300000D03*
X88640000Y51300000D03*
X86100000Y51300000D03*
X83560000Y51300000D03*
X81020000Y51300000D03*
%TD*%
D16*
%TO.C,C18*%
X73400000Y16625000D03*
X73400000Y18175000D03*
%TD*%
D39*
%TO.C,Q9*%
X88837500Y11750000D03*
X88837500Y13650000D03*
X86562500Y12700000D03*
%TD*%
%TO.C,Q8*%
X68537500Y12650000D03*
X68537500Y14550000D03*
X66262500Y13600000D03*
%TD*%
D44*
%TO.C,Q1*%
X27560000Y11900000D03*
D45*
X30100000Y22800000D03*
D44*
X32640000Y11900000D03*
%TD*%
D43*
%TO.C,R30*%
X56025000Y32400000D03*
X54375000Y32400000D03*
%TD*%
D10*
%TO.C,R35*%
X66500000Y18225000D03*
X66500000Y16575000D03*
%TD*%
D43*
%TO.C,C24*%
X2425000Y5935170D03*
X775000Y5935170D03*
%TD*%
D46*
%TO.C,C27*%
X7916637Y45783363D03*
X9083363Y44616637D03*
%TD*%
D28*
%TO.C,J11*%
X95700000Y48700000D03*
D29*
X95700000Y46160000D03*
%TD*%
D32*
%TO.C,C23*%
X65450000Y21467620D03*
D33*
X65450000Y23967620D03*
%TD*%
D19*
%TO.C,R10*%
X46100000Y47075000D03*
X46100000Y48725000D03*
%TD*%
D47*
%TO.C,J6*%
X49500000Y57200000D03*
D48*
X52000000Y57200000D03*
X54500000Y57200000D03*
X57000000Y57200000D03*
%TD*%
D49*
%TO.C,D4*%
X51050000Y34700000D03*
X53550000Y34700000D03*
%TD*%
D10*
%TO.C,R40*%
X69900000Y18225000D03*
X69900000Y16575000D03*
%TD*%
D47*
%TO.C,J9*%
X89500000Y57200000D03*
D48*
X92000000Y57200000D03*
X94500000Y57200000D03*
X97000000Y57200000D03*
%TD*%
D28*
%TO.C,J4*%
X35400000Y48700000D03*
D29*
X35400000Y46160000D03*
%TD*%
D13*
%TO.C,J23*%
X22000000Y4600000D03*
D14*
X27080000Y4600000D03*
%TD*%
D10*
%TO.C,C26*%
X2800000Y2825000D03*
X2800000Y1175000D03*
%TD*%
D38*
%TO.C,D5*%
X90641339Y29594033D03*
X90641339Y31594033D03*
%TD*%
D41*
%TO.C,H5*%
X13500000Y13100000D03*
%TD*%
D32*
%TO.C,C5*%
X40300000Y47000000D03*
D33*
X40300000Y44500000D03*
%TD*%
D15*
%TO.C,R41*%
X66427904Y27000000D03*
X68077904Y27000000D03*
%TD*%
D16*
%TO.C,C10*%
X51874590Y16600494D03*
X51874590Y18150494D03*
%TD*%
D19*
%TO.C,R9*%
X51200000Y47075000D03*
X51200000Y48725000D03*
%TD*%
D50*
%TO.C,L1*%
X72100000Y22200000D03*
X72100000Y26800000D03*
%TD*%
D39*
%TO.C,Q4*%
X64937500Y12650000D03*
X64937500Y14550000D03*
X62662500Y13600000D03*
%TD*%
D34*
%TO.C,U4*%
X39200000Y38600000D03*
D35*
X41740000Y38600000D03*
X44280000Y38600000D03*
X46820000Y38600000D03*
X49360000Y38600000D03*
X51900000Y38600000D03*
X54440000Y38600000D03*
D40*
X56980000Y38600000D03*
D35*
X56980000Y51300000D03*
X54440000Y51300000D03*
X51900000Y51300000D03*
X49360000Y51300000D03*
X46820000Y51300000D03*
X44280000Y51300000D03*
X41740000Y51300000D03*
X39200000Y51300000D03*
%TD*%
D47*
%TO.C,J16*%
X54100000Y26000000D03*
D48*
X56600000Y26000000D03*
X59100000Y26000000D03*
%TD*%
D16*
%TO.C,C14*%
X68100000Y16625000D03*
X68100000Y18175000D03*
%TD*%
D19*
%TO.C,R46*%
X3800000Y5775000D03*
X3800000Y7425000D03*
%TD*%
D30*
%TO.C,RN1*%
X57800000Y12500000D03*
X57800000Y14300000D03*
D31*
X58600000Y12500000D03*
X58600000Y14300000D03*
X59400000Y12500000D03*
X59400000Y14300000D03*
D30*
X60200000Y12500000D03*
X60200000Y14300000D03*
%TD*%
D41*
%TO.C,H3*%
X43800000Y57000000D03*
%TD*%
D28*
%TO.C,J8*%
X56800000Y48700000D03*
D29*
X56800000Y46160000D03*
%TD*%
D47*
%TO.C,J3*%
X24100000Y57200000D03*
D48*
X26600000Y57200000D03*
X29100000Y57200000D03*
X31600000Y57200000D03*
%TD*%
D15*
%TO.C,R21*%
X49775000Y21500000D03*
X51425000Y21500000D03*
%TD*%
D10*
%TO.C,R42*%
X76600000Y18225000D03*
X76600000Y16575000D03*
%TD*%
%TO.C,R22*%
X61700000Y18225000D03*
X61700000Y16575000D03*
%TD*%
D19*
%TO.C,R15*%
X69300000Y47075000D03*
X69300000Y48725000D03*
%TD*%
D43*
%TO.C,R44*%
X4125000Y8900000D03*
X2475000Y8900000D03*
%TD*%
D39*
%TO.C,Q10*%
X76037500Y12650000D03*
X76037500Y14550000D03*
X73762500Y13600000D03*
%TD*%
D51*
%TO.C,J15*%
X8000000Y12600000D03*
D48*
X5500000Y12600000D03*
X3000000Y12600000D03*
%TD*%
D10*
%TO.C,C21*%
X81262500Y33025000D03*
X81262500Y31375000D03*
%TD*%
D47*
%TO.C,J13*%
X68600000Y57200000D03*
D48*
X71100000Y57200000D03*
X73600000Y57200000D03*
X76100000Y57200000D03*
%TD*%
D52*
%TO.C,F1*%
X11337500Y49200000D03*
X9462500Y49200000D03*
%TD*%
D42*
%TO.C,C1*%
X5100000Y42775000D03*
X5100000Y41225000D03*
%TD*%
D43*
%TO.C,R26*%
X56055375Y30900000D03*
X54405375Y30900000D03*
%TD*%
D10*
%TO.C,R27*%
X56900000Y18225000D03*
X56900000Y16575000D03*
%TD*%
D32*
%TO.C,C6*%
X82520000Y47000000D03*
D33*
X82520000Y44500000D03*
%TD*%
D10*
%TO.C,R28*%
X63300000Y18225000D03*
X63300000Y16575000D03*
%TD*%
D19*
%TO.C,R18*%
X88700000Y47100000D03*
X88700000Y48750000D03*
%TD*%
D53*
%TO.C,U2*%
X15500000Y53400000D03*
X15000000Y53400000D03*
X14500000Y53400000D03*
X14000000Y53400000D03*
X13500000Y53400000D03*
X13500000Y48800000D03*
X14000000Y48800000D03*
X14500000Y48800000D03*
X15000000Y48800000D03*
X15500000Y48800000D03*
%TD*%
D54*
%TO.C,Q3*%
X45940000Y25820680D03*
D55*
X43400000Y14920680D03*
D54*
X40860000Y25820680D03*
%TD*%
D36*
%TO.C,J17*%
X97000000Y32810690D03*
D35*
X94500000Y32810690D03*
%TD*%
D41*
%TO.C,H4*%
X83800000Y57000000D03*
%TD*%
D10*
%TO.C,R1*%
X10700000Y59025000D03*
X10700000Y57375000D03*
%TD*%
D17*
%TO.C,J28*%
X72201242Y3000000D03*
D18*
X72201242Y5500000D03*
X72201242Y8000000D03*
%TD*%
D17*
%TO.C,J27*%
X80200000Y3000000D03*
D18*
X80200000Y5500000D03*
X80200000Y8000000D03*
%TD*%
D56*
%TO.C,C16*%
X88725000Y15100000D03*
X90275000Y15100000D03*
%TD*%
D43*
%TO.C,C22*%
X77825000Y28100000D03*
X76175000Y28100000D03*
%TD*%
D10*
%TO.C,C13*%
X71638361Y33025000D03*
X71638361Y31375000D03*
%TD*%
D19*
%TO.C,R16*%
X90900000Y47100000D03*
X90900000Y48750000D03*
%TD*%
D57*
%TO.C,J22*%
X34020000Y5600000D03*
D58*
X37520000Y5600000D03*
%TD*%
D17*
%TO.C,J24*%
X50505097Y3000000D03*
D18*
X50505097Y5500000D03*
X50505097Y8000000D03*
%TD*%
D32*
%TO.C,C4*%
X61600000Y47000000D03*
D33*
X61600000Y44500000D03*
%TD*%
D59*
%TO.C,SW1*%
X2400000Y40349999D03*
X2400000Y44849999D03*
D60*
X4890000Y39099999D03*
X4890000Y46109999D03*
%TD*%
D28*
%TO.C,J10*%
X75000000Y48700000D03*
D29*
X75000000Y46160000D03*
%TD*%
D19*
%TO.C,R8*%
X24800000Y47075000D03*
X24800000Y48725000D03*
%TD*%
D61*
%TO.C,U8*%
X77500000Y31250000D03*
X77500000Y32200000D03*
X77500000Y33150000D03*
X75225000Y33150000D03*
X75225000Y31250000D03*
%TD*%
D43*
%TO.C,R5*%
X11325000Y52400000D03*
X9675000Y52400000D03*
%TD*%
D16*
%TO.C,C17*%
X78100000Y16625000D03*
X78100000Y18175000D03*
%TD*%
D32*
%TO.C,C12*%
X83700000Y24800000D03*
D33*
X83700000Y27300000D03*
%TD*%
D16*
%TO.C,C15*%
X71500000Y16625000D03*
X71500000Y18175000D03*
%TD*%
D41*
%TO.C,H6*%
X83800000Y17000000D03*
%TD*%
D16*
%TO.C,C11*%
X60100000Y16625000D03*
X60100000Y18175000D03*
%TD*%
D43*
%TO.C,R32*%
X78625000Y22000000D03*
X76975000Y22000000D03*
%TD*%
D19*
%TO.C,R33*%
X88900000Y29675000D03*
X88900000Y31325000D03*
%TD*%
D43*
%TO.C,R4*%
X11225000Y53905117D03*
X9575000Y53905117D03*
%TD*%
D62*
%TO.C,D3*%
X68100000Y32700000D03*
X70100000Y32700000D03*
%TD*%
D28*
%TO.C,J14*%
X98500000Y48700000D03*
D29*
X98500000Y46160000D03*
%TD*%
D39*
%TO.C,Q7*%
X72637500Y12650000D03*
X72637500Y14550000D03*
X70362500Y13600000D03*
%TD*%
D15*
%TO.C,R2*%
X9675000Y50900000D03*
X11325000Y50900000D03*
%TD*%
D63*
%TO.C,U1*%
X15237500Y57350000D03*
X15237500Y58300000D03*
X15237500Y59250000D03*
X12962500Y59250000D03*
X12962500Y58300000D03*
X12962500Y57350000D03*
%TD*%
D36*
%TO.C,J19*%
X97000000Y17800000D03*
D35*
X94500000Y17800000D03*
%TD*%
D19*
%TO.C,R14*%
X66200000Y47075000D03*
X66200000Y48725000D03*
%TD*%
%TO.C,R43*%
X99000000Y12575000D03*
X99000000Y14225000D03*
%TD*%
D43*
%TO.C,R45*%
X3125000Y4400000D03*
X1475000Y4400000D03*
%TD*%
D12*
%TO.C,U9*%
X88742493Y23840724D03*
X89692493Y23840724D03*
X90642493Y23840724D03*
X90642493Y26115724D03*
X89692493Y26115724D03*
X88742493Y26115724D03*
%TD*%
D19*
%TO.C,R11*%
X49300000Y47075000D03*
X49300000Y48725000D03*
%TD*%
D16*
%TO.C,C8*%
X58500000Y16625000D03*
X58500000Y18175000D03*
%TD*%
D17*
%TO.C,J30*%
X94600000Y3000000D03*
D18*
X94600000Y5500000D03*
X94600000Y8000000D03*
%TD*%
D43*
%TO.C,C25*%
X2425000Y7400000D03*
X775000Y7400000D03*
%TD*%
D64*
%TO.C,Q2*%
X59262500Y31750000D03*
X59262500Y29850000D03*
X61537500Y30800000D03*
%TD*%
D41*
%TO.C,H1*%
X13500000Y41000000D03*
%TD*%
D65*
%TO.C,D8*%
X46700000Y30500000D03*
X41700000Y30500000D03*
%TD*%
D28*
%TO.C,J7*%
X54000000Y48700000D03*
D29*
X54000000Y46160000D03*
%TD*%
D65*
%TO.C,D7*%
X46700000Y34800000D03*
X41700000Y34800000D03*
%TD*%
D41*
%TO.C,H7*%
X43590000Y8000000D03*
%TD*%
D17*
%TO.C,J25*%
X57305097Y3000000D03*
D18*
X57305097Y5500000D03*
X57305097Y8000000D03*
%TD*%
D43*
%TO.C,R25*%
X66625000Y32700000D03*
X64975000Y32700000D03*
%TD*%
%TO.C,R39*%
X68077904Y28600000D03*
X66427904Y28600000D03*
%TD*%
D10*
%TO.C,R31*%
X79662500Y33025000D03*
X79662500Y31375000D03*
%TD*%
D17*
%TO.C,J29*%
X87000000Y3000000D03*
D18*
X87000000Y5500000D03*
X87000000Y8000000D03*
%TD*%
D10*
%TO.C,R29*%
X57700000Y31600000D03*
X57700000Y29950000D03*
%TD*%
D49*
%TO.C,D1*%
X22350000Y12200000D03*
X24850000Y12200000D03*
%TD*%
D66*
%TO.C,J20*%
X4200000Y22650000D03*
D67*
X4200000Y30650000D03*
%TD*%
M02*
